<?xml version="1.0" encoding="utf-8"?>
<!-- Generator: Adobe Illustrator 23.0.0, SVG Export Plug-In . SVG Version: 6.00 Build 0)  -->
<svg version="1.1" id="Layer_1" xmlns="http://www.w3.org/2000/svg" xmlns:xlink="http://www.w3.org/1999/xlink" x="0px" y="0px"
	 viewBox="0 0 80 80" style="enable-background:new 0 0 80 80;" xml:space="preserve">
<style type="text/css">
	.st0{fill:none;stroke:#000000;stroke-width:1.3;stroke-linecap:round;stroke-linejoin:round;stroke-miterlimit:10;}
	.st1{fill:none;stroke:#000000;stroke-width:1.3;stroke-linecap:round;stroke-linejoin:round;stroke-miterlimit:2.6131;}
</style>
<g>
	<g>
		<g id="XMLID_334_">
			<g>
				<polygon class="st0" points="57.459,38.747 57.459,28.05 57.634,28.05 71.667,33.095 71.667,33.39 				"/>
				<polygon class="st0" points="22.704,27.56 22.763,27.56 22.763,38.757 8.711,33.39 8.554,33.056 				"/>
				<polygon class="st0" points="40.188,45.426 22.763,38.757 22.763,27.56 22.763,9.04 40.112,14.516 57.459,9.04 57.459,28.05 
					57.459,38.747 40.188,45.26 40.257,45.387 				"/>
				<polygon class="st0" points="71.667,52.065 71.667,64.866 40.551,77.188 40.257,51.83 43.895,51.821 49.145,61.121 				"/>
				<polygon class="st0" points="71.667,51.734 71.667,52.065 49.145,61.121 43.895,51.821 				"/>
				<polygon class="st0" points="22.763,9.04 22.539,8.971 40.112,3.426 57.672,8.971 57.459,9.04 40.112,14.516 				"/>
				<polygon class="st0" points="71.667,51.734 43.895,51.821 40.257,45.387 40.188,45.26 57.459,38.747 71.667,33.39 
					78.962,49.132 71.667,52.065 				"/>
				<polygon class="st0" points="40.257,51.83 40.551,77.188 8.711,64.866 8.711,52.193 30.781,61.121 36.347,51.841 				"/>
				<polygon class="st0" points="36.347,51.841 30.781,61.121 8.711,52.193 8.711,51.93 				"/>
				<polygon class="st0" points="1.152,49.132 8.711,33.39 22.763,38.757 40.188,45.426 36.347,51.841 8.711,51.93 8.711,52.193 
									"/>
			</g>
			<g>
				<polyline class="st0" points="8.711,52.193 8.711,64.866 40.551,77.188 71.667,64.866 71.667,52.065 				"/>
				<polygon class="st0" points="8.711,33.39 22.763,38.757 40.188,45.426 36.347,51.841 30.781,61.121 8.711,52.193 1.152,49.132 
									"/>
				<polygon class="st0" points="71.667,33.39 57.459,38.747 40.188,45.26 40.257,45.387 43.895,51.821 49.145,61.121 
					71.667,52.065 78.962,49.132 				"/>
				<line class="st0" x1="8.554" y1="33.056" x2="22.704" y2="27.56"/>
				<line class="st0" x1="57.634" y1="28.05" x2="71.667" y2="33.095"/>
				<polyline class="st0" points="40.188,45.866 40.257,51.83 40.551,77.188 				"/>
				<polyline class="st0" points="57.459,9.04 57.459,28.05 57.459,38.747 57.459,38.757 				"/>
				<polyline class="st0" points="22.763,38.757 22.763,27.56 22.763,9.04 				"/>
				<polygon class="st1" points="22.763,9.04 22.539,8.971 40.112,3.426 57.672,8.971 57.459,9.04 40.112,14.516 				"/>
				<line class="st1" x1="29.169" y1="20.646" x2="29.169" y2="34.19"/>
				<line class="st1" x1="50.926" y1="15.513" x2="50.926" y2="29.057"/>
			</g>
		</g>
	</g>
</g>
</svg>
