<?xml version="1.0" encoding="utf-8"?>
<!-- Generator: Adobe Illustrator 19.0.0, SVG Export Plug-In . SVG Version: 6.00 Build 0)  -->
<svg version="1.1" id="Слой_1" xmlns="http://www.w3.org/2000/svg" xmlns:xlink="http://www.w3.org/1999/xlink" x="0px" y="0px"
	 viewBox="-87 12.7 92 92" style="enable-background:new -87 12.7 92 92;" xml:space="preserve">
<title>Artboard 51</title>
<path d="M1.6,41.3c-9.6-23.5-36.5-34.8-60-25.1c-11.4,4.7-20.5,13.7-25.1,25.1c-0.1,0.1-0.1,0.3-0.2,0.4c-4.4,10.9-4.4,23.1,0,34
	c0,0.1,0.1,0.3,0.2,0.4c9.6,23.5,36.5,34.8,60,25.1c11.4-4.7,20.5-13.7,25.1-25.1c0.1-0.1,0.1-0.3,0.2-0.4c4.4-10.9,4.4-23.1,0-34
	C1.7,41.6,1.6,41.4,1.6,41.3z M-41,100.7c-7.7,0-14.6-9.7-17.9-23.5h35.7C-26.4,91-33.3,100.7-41,100.7z M-59.7,73.2
	c-1.7-9.6-1.7-19.4,0-29h37.4c0.9,4.8,1.3,9.6,1.3,14.5c0,4.9-0.4,9.7-1.3,14.5H-59.7z M-83,58.7c0-4.9,0.9-9.9,2.6-14.5h16.6
	c-1.6,9.6-1.6,19.4,0,29h-16.6C-82.1,68.6-83,63.7-83,58.7z M-41,16.7c7.7,0,14.6,9.7,17.9,23.5h-35.7C-55.6,26.4-48.7,16.7-41,16.7
	z M-18.2,44.2h16.6c3.4,9.4,3.4,19.6,0,29h-16.6c0.8-4.8,1.2-9.6,1.2-14.5C-17,53.9-17.4,49-18.2,44.2z M-3.3,40.2H-19
	c-2.1-9.3-5.7-17-10.3-21.8C-18,21.7-8.5,29.6-3.3,40.2z M-52.7,18.4C-57.3,23.2-61,30.9-63,40.2h-15.7
	C-73.5,29.6-64,21.7-52.7,18.4z M-78.7,77.2H-63c2.1,9.3,5.7,17,10.3,21.8C-64,95.7-73.5,87.8-78.7,77.2z M-29.3,99.1
	c4.6-4.8,8.2-12.5,10.3-21.8h15.7C-8.5,87.8-18,95.7-29.3,99.1z"/>
</svg>
