<?xml version="1.0" encoding="utf-8"?>
<!-- Generator: Adobe Illustrator 19.0.0, SVG Export Plug-In . SVG Version: 6.00 Build 0)  -->
<svg version="1.1" id="Слой_1" xmlns="http://www.w3.org/2000/svg" xmlns:xlink="http://www.w3.org/1999/xlink" x="0px" y="0px"
	 viewBox="-91 21.2 100 75" style="enable-background:new -91 21.2 100 75;" xml:space="preserve">
<title>All2</title>
<path d="M9,85.5c-0.2,0.6-0.3,1.2-0.5,1.8c-1.6,5.4-6.5,9-12.1,9c-25.8,0-51.5-0.1-77.2,0c-5.5,0-9-3.5-9.8-7
	c-0.2-0.7-0.3-1.5-0.3-2.3c0-15.6,0-31.2,0-46.8c-0.1-1.7,1.1-3.2,2.8-3.3c0.2,0,0.3,0,0.5,0h9.2c0-0.8,0-1.5,0-2.3
	c0-3.3,0-6.7,0-10.1c-0.1-1.7,1.1-3.1,2.8-3.3c0.1,0,0.3,0,0.4,0H5.8c1.5,0,2.8,0.9,3.2,2.3V85.5z M-72.2,27.5c0,0.3,0,0.5,0,0.6
	c0,13.1,0,26.2,0,39.3c0,7.5,0.3,14.9-0.2,22.5h68.8c3.5,0,6.3-2.7,6.4-6.2c0-0.1,0-0.1,0-0.2c0-18.4,0-36.8,0-55.2
	c0-0.3,0-0.6,0-0.9L-72.2,27.5L-72.2,27.5z M-84.7,43.1c0,0.2,0,0.3,0,0.4c0,14.4,0,28.8,0,43.1c-0.1,1.7,1.3,3.2,3,3.2
	c1.7,0.1,3.2-1.3,3.2-3c0-0.1,0-0.2,0-0.3c0-14.1,0-28.2,0-42.4c0-0.3,0-0.7,0-1C-78.5,43.1-84.7,43.1-84.7,43.1z"/>
<path d="M-34.8,43.3h-26.3c-1.7,0.1-3.2-1.3-3.2-3s1.3-3.2,3-3.2h53.1c1.7,0,3.2,1.3,3.2,3c0,1.4-0.9,2.6-2.2,3.1
	c-0.4,0.1-0.8,0.1-1.2,0.1L-34.8,43.3L-34.8,43.3z"/>
<path d="M-34.7,49.5h26.5c1.7,0,3.1,1.4,3.2,3.1c0,1.4-0.9,2.7-2.3,3.1c-0.3,0.1-0.7,0.1-1.1,0.1h-52.8c-1.7,0.1-3.1-1.2-3.2-2.9
	c0-0.1,0-0.1,0-0.2c0-1.7,1.3-3,2.9-3.1c0.1,0,0.2,0,0.3,0C-61.2,49.5-34.7,49.5-34.7,49.5z"/>
<path d="M-50.6,62.6h9.2c1.7-0.1,3.2,1.1,3.3,2.8c0,0.1,0,0.3,0,0.4c0,4.1,0,8.2,0,12.3c0.1,1.7-1.2,3.1-2.8,3.2c-0.1,0-0.3,0-0.4,0
	h-18.5c-1.7,0.1-3.2-1.2-3.3-2.9c0-0.1,0-0.2,0-0.4c0-4.1,0-8.3,0-12.4c0-1.7,1.3-3.1,3-3.1c0.1,0,0.1,0,0.2,0L-50.6,62.6
	L-50.6,62.6z"/>
<path d="M-18.3,62.6h9.9c1.7-0.1,3.2,1.2,3.3,2.9c0.1,1.7-1.2,3.2-2.9,3.3c-0.1,0-0.2,0-0.4,0c-6.7,0-13.5,0-20.2,0
	c-1.5,0-2.8-1.1-3-2.6c-0.3-1.5,0.6-3,2.1-3.5c0.4-0.1,0.8-0.1,1.2-0.1L-18.3,62.6L-18.3,62.6z"/>
<path d="M-18.3,81.4h-10c-1.7,0.1-3.2-1.2-3.3-2.9s1.2-3.2,2.9-3.3c0.1,0,0.2,0,0.4,0h19.9c1.7,0,3.1,1.4,3.1,3.1s-1.4,3.1-3.1,3.1
	c0,0,0,0,0,0C-11.7,81.4-15,81.4-18.3,81.4L-18.3,81.4L-18.3,81.4z"/>
</svg>
