<?xml version="1.0" encoding="utf-8"?>
<!-- Generator: Adobe Illustrator 19.0.0, SVG Export Plug-In . SVG Version: 6.00 Build 0)  -->
<svg version="1.1" id="Слой_1" xmlns="http://www.w3.org/2000/svg" xmlns:xlink="http://www.w3.org/1999/xlink" x="0px" y="0px"
	 viewBox="-485 3491 20 14" style="enable-background:new -485 3491 20 14;" xml:space="preserve">
<style type="text/css">
	.st0{fill:none;}
</style>
<title>Eye</title>
<desc>Created with Sketch.</desc>
<g>
	<g>
		<polygon class="st0" points="-463,3510 -487,3510 -487,3486 -463,3486 		"/>
		<path d="M-475,3504c3.9,0,7.3-2.2,9-5.9c0,0,0,0,0,0c-1.6-3.7-5.1-6-9-6c-3.9,0-7.4,2.3-9,6c0,0,0,0,0,0.1
			C-482.4,3501.7-478.9,3504-475,3504z M-465,3497.9c0,0.1,0,0.1,0,0.2c0,0.1,0,0.1,0,0.2c0,0,0,0.1,0,0.1c0,0.1,0,0.1,0,0.1
			c-1.8,4.2-5.8,6.6-9.9,6.6c-4.2,0-8.1-2.4-9.9-6.6c0,0,0,0,0-0.1c0-0.1,0-0.1,0-0.1c0-0.1,0-0.1,0-0.2c0-0.1,0-0.1,0-0.2
			c0,0,0-0.1,0-0.1c0-0.1,0-0.1,0-0.1c1.8-4.2,5.8-6.7,10-6.7c4.2,0,8.1,2.4,9.9,6.7c0,0,0,0,0,0.1
			C-465,3497.8-465,3497.8-465,3497.9z M-474.9,3501.5c1.9,0,3.4-1.6,3.4-3.5c0-1.9-1.6-3.5-3.5-3.5c-1.9,0-3.5,1.6-3.5,3.5
			S-476.9,3501.5-474.9,3501.5z M-474.9,3502.5c-2.5,0-4.6-2.1-4.6-4.5c0-2.5,2-4.5,4.5-4.5c2.5,0,4.5,2,4.5,4.5
			C-470.5,3500.4-472.5,3502.5-474.9,3502.5z M-474.9,3499.5c0.8,0,1.4-0.7,1.4-1.5c0-0.8-0.7-1.5-1.5-1.5c-0.8,0-1.5,0.7-1.5,1.5
			C-476.5,3498.8-475.8,3499.5-474.9,3499.5z M-475,3500.5c-1.4,0-2.5-1.1-2.5-2.5c0-1.4,1.1-2.5,2.5-2.5c1.4,0,2.5,1.1,2.5,2.5
			C-472.5,3499.4-473.6,3500.5-475,3500.5z"/>
	</g>
</g>
</svg>
