<?xml version="1.0" encoding="utf-8"?>
<!-- Generator: Adobe Illustrator 19.0.0, SVG Export Plug-In . SVG Version: 6.00 Build 0)  -->
<svg version="1.1" id="Слой_1" xmlns="http://www.w3.org/2000/svg" xmlns:xlink="http://www.w3.org/1999/xlink" x="0px" y="0px"
	 viewBox="-87.8 12.3 93.7 93.6" style="enable-background:new -87.8 12.3 93.7 93.6;" xml:space="preserve">
<style type="text/css">
	.st0{display:none;}
	.st1{display:inline;stroke:#010202;stroke-width:2;stroke-linecap:round;stroke-linejoin:round;stroke-miterlimit:10;}
	.st2{display:inline;}
	.st3{stroke:#010202;stroke-width:2;stroke-linecap:round;stroke-linejoin:round;stroke-miterlimit:10;}
</style>
<g class="st0">
	<path class="st1" d="M3299.4-747.5c-9.8,0-19.2,2-27.7,5.6l0,0c-6.9,8.5-14.8,16.1-23.5,22.6c-2,1.6-4.6,2.5-7.3,2.5
		c-6.2,0-11.4-4.8-11.9-10.9c-0.2-3.4-0.3-6.8-0.3-10.2c0-23.6,4.6-46,13-66.6l-0.6,1.5c4-10.7,14.3-18.3,26.4-18.3
		c6.3,0,12.1,2.1,16.8,5.6l0,0c4.4,2.8,9.6,4.4,15.2,4.4s10.8-1.6,15.2-4.4l0,0c4.7-3.5,10.5-5.6,16.8-5.6
		c12.1,0,22.4,7.6,26.4,18.3l-0.6-1.5c8.4,20.5,13,43,13,66.6c0,3.4-0.1,6.8-0.3,10.2c-0.5,6.1-5.6,10.9-11.9,10.9
		c-2.8,0-5.3-0.9-7.3-2.5c-8.8-6.5-16.7-14.1-23.5-22.6C3318.6-745.5,3309.2-747.5,3299.4-747.5z"/>
	<circle class="st1" cx="3321.8" cy="-778.1" r="6.2"/>
	<circle class="st1" cx="3348.3" cy="-778.1" r="6.2"/>
	<circle class="st1" cx="3335" cy="-791.3" r="6.2"/>
	<circle class="st1" cx="3335" cy="-764.8" r="6.2"/>
	<path class="st1" d="M3272.6-784.3h10.2c1.7,0,3.1,1.4,3.1,3.1v3.7c0,1.7-1.4,3.1-3.1,3.1h-10.2v10.2c0,1.7-1.4,3.1-3.1,3.1h-3.7
		c-1.7,0-3.1-1.4-3.1-3.1v-10.2h-10.2c-1.7,0-3.1-1.4-3.1-3.1v-3.7c0-1.7,1.4-3.1,3.1-3.1h10.2v-10.2c0-1.7,1.4-3.1,3.1-3.1h3.7
		c1.7,0,3.1,1.4,3.1,3.1V-784.3z"/>
	<path class="st1" d="M3236.8-538.6l10.8-3.3l8.1,16.4c0.6,1.3,2.4,1.6,3.4,0.6l2.4-2.4c2.6-2.6,3.8-6.2,3.4-9.9l-1.8-15.7
		c-0.1-0.7,0.2-1.4,0.7-1.9l34-30l0,0l30.2,60.7c0.6,1.3,2.4,1.6,3.4,0.6l8.6-8.6c2-2,3-5,2.4-7.8l-13.2-72.5l0,0l18.4-16.3
		c4.6-4,8.7-8.7,11.9-13.8c6.2-9.9,8.9-20.5,4.3-25.2c-4.7-4.7-15.3-1.9-25.2,4.3c-5.2,3.2-9.8,7.3-13.8,11.9l-16.3,18.4l0,0
		l-72.5-13.2c-2.8-0.5-5.8,0.4-7.8,2.4l-8.6,8.6c-1,1-0.7,2.8,0.6,3.4l60.7,30.2l0,0l-30,34c-0.5,0.5-1.2,0.8-1.9,0.7l-15.7-1.8
		c-3.6-0.4-7.3,0.8-9.9,3.4l-2.4,2.4c-1,1-0.7,2.8,0.6,3.4l16.4,8.1l-3.3,10.8C3234.2-539.5,3235.5-538.2,3236.8-538.6z"/>
	<path class="st1" d="M3237-321.8l-9.4-9.4c-2.6-2.6-2.6-6.9,0-9.5l35.2-35.2c2.6-2.6,6.9-2.6,9.5,0l9.4,9.4c2.6,2.6,2.6,6.9,0,9.5
		l-35.2,35.2C3243.9-319.2,3239.6-319.2,3237-321.8z"/>
	<path class="st1" d="M3292.2-375.4l-2.4,2.4c-1.4,1.4-3.6,1.4-4.9,0l-6.1-6.1c-1.4-1.4-1.4-3.6,0-4.9l2.4-2.4l0,0
		c-16.8-22.2-15.1-54,5.1-74.3c22.1-22.1,58-22.1,80.1,0s22.1,58,0,80.1C3346.2-360.3,3314.4-358.6,3292.2-375.4L3292.2-375.4z"/>
	<circle class="st1" cx="3326.4" cy="-420.6" r="44.7"/>
	<path class="st1" d="M3301.4-171.3L3301.4-171.3c-2.4-2.4-2.4-6.3,0-8.7l56-56c2.4-2.4,6.3-2.4,8.7,0l0,0c2.4,2.4,2.4,6.3,0,8.7
		l-56,56C3307.7-169,3303.8-169,3301.4-171.3z"/>
	<circle class="st1" cx="3248.3" cy="-223.9" r="5.5"/>
	<path class="st1" d="M3292.7-235.6c0.7-1.2,1.5-2.3,2.5-3.3c0.5-0.5,1.1-1,1.7-1.4l0,0c0.8,0.6,1.6,1.2,2.4,1.9
		c0.8,0.8,1.4,1.6,2,2.4l0,0c1.3,1.9,1.1,4.6-0.6,6.3c-1.9,2-5.1,2-7.1,0C3291.9-231.2,3291.6-233.7,3292.7-235.6L3292.7-235.6z"/>
	<circle class="st1" cx="3340.9" cy="-239.9" r="5.5"/>
	<path class="st1" d="M3302.8-244.6c5.3-1.8,11.4-0.6,15.7,3.6c5.2,5.2,5.8,13.1,2,19l0,0c-3.5,5-7.5,9.7-12,14.2
		c-5.7,5.7-11.9,10.7-18.5,14.8c-0.2,0.1-0.3,0.3-0.5,0.4c-1.7,1.7-1.7,4.4,0,6c1.5,1.5,3.8,1.6,5.5,0.5l-0.5,0.3
		c7.2-4.4,13.9-9.7,20.1-15.9c4.8-4.8,9.1-10,12.8-15.4c6-9.2,5-21.7-3.2-29.9c-7.3-7.3-18.2-8.9-27.1-4.7c-9-4.7-20.5-3.4-28.1,4.1
		c-7.4,7.4-8.9,18.4-4.6,27.3l0,0c0.2,0.4,0.4,0.7,0.7,1c1.6,1.6,4.2,1.6,5.9,0c1.2-1.2,1.5-3,0.9-4.5l0,0c-2.8-5.7-1.8-12.9,3-17.6
		c4.5-4.5,11-5.6,16.6-3.5c-1.4,0.6-2.7,1.5-3.8,2.7c-5.1,5.1-5.1,13.5,0,18.6s13.5,5.1,18.6,0s5.1-13.5,0-18.6
		C3305.3-243.1,3304.1-244,3302.8-244.6L3302.8-244.6z"/>
	<circle class="st1" cx="3353.9" cy="-118.2" r="5.5"/>
	<path class="st1" d="M3365.6-162.6c1.2-0.7,2.3-1.5,3.3-2.5c0.5-0.5,1-1.1,1.4-1.7l0,0c-0.6-0.8-1.2-1.6-1.9-2.4
		c-0.8-0.8-1.6-1.4-2.4-2l0,0c-1.9-1.3-4.6-1.1-6.3,0.6c-2,2-2,5.1,0,7.1C3361.3-161.8,3363.7-161.5,3365.6-162.6L3365.6-162.6z"/>
	<path class="st1" d="M3374.6-172.8c1.8-5.3,0.6-11.4-3.6-15.7c-5.2-5.2-13.1-5.8-19-2l0,0c-5,3.5-9.7,7.5-14.2,12
		c-5.7,5.7-10.7,11.9-14.8,18.5c-0.1,0.2-0.3,0.3-0.4,0.5c-1.7,1.7-4.4,1.7-6,0c-1.5-1.5-1.6-3.8-0.5-5.5l-0.3,0.5
		c4.4-7.2,9.7-13.9,15.9-20.1c4.8-4.8,10-9.1,15.4-12.8c9.2-6,21.7-5,29.9,3.2c7.3,7.3,8.9,18.2,4.7,27.1c4.7,9,3.4,20.5-4.1,28.1
		c-7.4,7.4-18.4,8.9-27.3,4.6l0,0c-0.4-0.2-0.7-0.4-1-0.7c-1.6-1.6-1.6-4.2,0-5.9c1.2-1.2,3-1.5,4.5-0.9l0,0
		c5.7,2.8,12.9,1.8,17.6-3c4.5-4.5,5.6-11,3.5-16.6c-0.6,1.4-1.5,2.7-2.7,3.8c-5.1,5.1-13.5,5.1-18.6,0s-5.1-13.5,0-18.6
		s13.5-5.1,18.6,0C3373.2-175.2,3374-174,3374.6-172.8L3374.6-172.8z"/>
	<path class="st1" d="M3232.7-102.7c2,2,4.9,2.7,7.4,2l0,0l44.6-18.1l54.6-21.7l0,0c1.4-0.6,2.7-1.4,3.8-2.5
		c5.2-5.2,4.6-15-0.4-26.1l0,0c-2.3,2.4-4.5,4.9-6.5,7.4c-0.6,0.8-0.9,1.8-0.8,2.8c0.5,3.8-0.2,6.9-2.2,9c-6.3,6.3-23.3-0.4-37.8-15
		l-0.5-0.5c-14.6-14.6-21.3-31.5-15-37.8c2-2,5.2-2.7,9-2.2c1,0.1,2.1-0.1,2.8-0.8c2.5-2,5-4.2,7.4-6.5l0,0
		c-11.1-5.1-20.9-5.6-26.1-0.4c-1.1,1.1-1.9,2.4-2.5,3.8l0,0l-21.7,54.6l-18.1,44.6l0,0C3230.1-107.5,3230.7-104.7,3232.7-102.7z"/>
	<circle class="st1" cx="3774.8" cy="-1097.9" r="81.3"/>
	<g class="st2">
		<circle class="st3" cx="3815.6" cy="-1097.9" r="11.7"/>
		<circle class="st3" cx="3774.8" cy="-1097.9" r="11.7"/>
		<circle class="st3" cx="3734.1" cy="-1097.9" r="11.7"/>
	</g>
	<path class="st1" d="M3720.8-838.2h-18.5c-1.8,0-3.4-1.5-3.4-3.4v-35.7c0-1.8,1.5-3.4,3.4-3.4h18.5c1.8,0,3.4,1.5,3.4,3.4v35.7
		C3724.2-839.7,3722.6-838.2,3720.8-838.2z"/>
	<path class="st1" d="M3789.1-867.4c-9.7-10.2-23.5-16.6-38.7-16.6c-7.7,0-14.9,1.6-21.5,4.5l0,0v33.6c0,1.3,1.1,2.4,2.4,2.4h17.8
		c0.3,0,0.6,0.1,0.9,0.2l19.2,10.3c1,0.6,2.2,0.8,3.4,0.8h44c2,0,3.9-0.9,5.3-2.4l26.5-29.5l0,0c1.8-2.3,2.7-5.3,2.2-8.6
		c-0.7-4.7-4.4-8.6-9.1-9.5c-3.8-0.7-7.3,0.6-9.8,2.9l-13.1,12.9l0,0c1.1,1.8,1.8,4,1.7,6.3c-0.2,6-5.4,10.7-11.4,10.7h-22
		c-1,0-1.9-0.7-2.1-1.7c-0.2-1.3,0.8-2.4,2-2.4h22.2c3.8,0,7.2-3,7.3-6.8c0.1-4-3.1-7.2-7-7.2L3789.1-867.4L3789.1-867.4z"/>
	<path class="st1" d="M3801.2-883.3c4.6-0.2,9.2-3.8,27.1-21c17.8-17.2,18.5-26.3,18.5-26.3l0,0c0.4-1.8,0.6-3.6,0.6-5.5
		c0-13.5-10.9-24.4-24.4-24.4c-9.5,0-17.8,5.5-21.8,13.4l0,0c-4-8-12.3-13.4-21.8-13.4c-13.5,0-24.4,10.9-24.4,24.4
		c0,1.9,0.2,3.8,0.6,5.5l0,0c0,0,0.7,9.1,18.5,26.3C3791.9-887.1,3796.6-883.4,3801.2-883.3z"/>
	<path class="st1" d="M3795.3-942.1c1,2.3,3.2,3.9,5.9,3.9h0.3c2.7,0,4.9-1.6,5.9-3.9l0,0c2.6-5.4,8.2-9.1,14.5-9.1
		c8.9,0,16.2,7.2,16.2,16.2c0,1.4-0.2,2.8-0.5,4.2l0,0c0,0-0.5,7.2-14.7,20.8c-14.1,13.6-17.8,16.5-21.4,16.6h-0.3
		c-3.6-0.1-7.3-3-21.4-16.6c-14.1-13.6-14.7-20.8-14.7-20.8l0,0c-0.4-1.3-0.5-2.7-0.5-4.2c0-8.9,7.2-16.2,16.2-16.2
		C3787.1-951.2,3792.6-947.5,3795.3-942.1L3795.3-942.1z"/>
	<path class="st1" d="M3808.1-648.2h-66.6c-5.2,0-9.8-4.3-10.3-9.6l-11.1-108.1c0-6.6,5.4-12,12-12h85.3c6.6,0,12,5.4,12,12
		l-11.1,108.1C3817.9-652.5,3813.3-648.2,3808.1-648.2z"/>
	<path class="st1" d="M3801.4-658.5h-53.1c-4.1,0-7.8-3.6-8.2-8l-8.9-90.9c0-5.6,4.3-10.1,9.6-10.1h68c5.3,0,9.6,4.5,9.6,10.1
		l-8.9,90.9C3809.2-662.1,3805.5-658.5,3801.4-658.5z"/>
	<path class="st1" d="M3808.4-735.4l-5.9,62.2c-0.3,3.7-3.2,6.6-6.5,6.6h-42.3c-3.3,0-6.2-2.9-6.5-6.6l-5.9-62.2H3808.4z"/>
	<circle class="st1" cx="3299.4" cy="-934.1" r="70.7"/>
	<circle class="st1" cx="3299.4" cy="-934.1" r="58"/>
	<path class="st1" d="M3276.3-921c4.6,8,13.2,13.4,23.1,13.4s18.5-5.4,23.1-13.4l0,0c1.1-1.6,3-2.7,5.1-2.7c3.4,0,6.2,2.8,6.2,6.2
		c0,0.9-0.2,1.7-0.5,2.5l0,0c-6.7,11.8-19.3,19.8-33.9,19.8s-27.2-8-33.9-19.8l0,0c-0.3-0.8-0.5-1.6-0.5-2.5c0-3.4,2.8-6.2,6.2-6.2
		C3273.3-923.7,3275.2-922.7,3276.3-921L3276.3-921z"/>
	<g class="st2">
		<ellipse class="st3" cx="3283.1" cy="-949.9" rx="10.1" ry="15.7"/>
		<ellipse class="st3" cx="3315.7" cy="-949.9" rx="10.1" ry="15.7"/>
	</g>
	<path class="st1" d="M3275.3-1036.5h-27.7c-4,0-7.2-3.3-7.2-7.2v-22.7c0-4,3.3-7.2,7.2-7.2h27.7c4,0,7.2,3.3,7.2,7.2v22.7
		C3282.5-1039.8,3279.2-1036.5,3275.3-1036.5z"/>
	<path class="st1" d="M3323.6-1036.5h27.7c4,0,7.2-3.3,7.2-7.2v-22.7c0-4-3.3-7.2-7.2-7.2h-27.7c-4,0-7.2,3.3-7.2,7.2v22.7
		C3316.3-1039.8,3319.6-1036.5,3323.6-1036.5z"/>
	<path class="st1" d="M3254.3-1082.1h23c5.9,0,11.1,3.6,13.4,8.6l0,0c2.4-2,5.4-3.2,8.7-3.2s6.4,1.2,8.7,3.2l0,0
		c2.3-5.1,7.4-8.6,13.4-8.6h23l0,0l-26-26c-0.3-0.3-0.7-0.5-1.2-0.5c-0.9,0-1.7,0.8-1.7,1.7v1.2v4.4c0,2.5-2,4.5-4.5,4.5
		s-4.5-2-4.5-4.5v-7.4c0-5.9,4.8-10.8,10.8-10.8c3,0,5.7,1.2,7.6,3.2l37.6,37.6l0,0c3.3,2.7,5.4,6.8,5.4,11.3v24.6
		c0,8.1-6.6,14.7-14.7,14.7h-31.8c-8.1,0-14.7-6.6-14.7-14.7v-22.1l0,0c-1.6-2.4-4.4-3.9-7.4-3.9c-3.1,0-5.8,1.5-7.4,3.9l0,0v22.1
		c0,8.1-6.6,14.7-14.7,14.7h-31.8c-8.1,0-14.7-6.6-14.7-14.7v-24.6c0-4.5,2.1-8.6,5.4-11.3l37.6-37.6c1.9-1.9,4.6-3.2,7.6-3.2
		c5.9,0,10.8,4.8,10.8,10.8v7.4c0,2.5-2,4.5-4.5,4.5s-4.5-2-4.5-4.5v-4.4v-1.2c0-0.9-0.8-1.7-1.7-1.7c-0.5,0-0.9,0.2-1.2,0.5
		C3280.3-1108.1,3254.3-1082.1,3254.3-1082.1z"/>
	<path class="st1" d="M3296.7-1265.6c0,0-1.8-9.2-17.7-9.9c-17.6-0.8-22.4,8.6-32.9,12c-1.3,0.4-2.5,0.7-3.6,1
		c-1.5,0.3-2.6,1.7-2.6,3.3v67.4c0,1.8,1.5,3.3,3.3,3.3h43.4c1.7,0,3.3-0.7,4.5-1.9l3.6-3.6c1.2-1.2,1.9-2.8,1.9-4.5L3296.7-1265.6z
		"/>
	<path class="st1" d="M3299.4-1175.9h10.6c1.8,0,3.3-1.5,3.3-3.3l0,0c0-0.7,0.6-1.2,1.2-1.2h47.6c3.3,0,5.9-2.7,5.9-5.9v-82.7
		c0-1.9-1.6-3.4-3.5-3.3c-3,0.2-7.6,0.1-13.4-1.7c-10.1-3.2-14.7-11.6-31.9-11.6c-12.3,0-17.5,5.3-19.2,7.7c-0.3,0.5-1,0.5-1.3,0
		c-1.7-2.3-6.9-7.7-19.2-7.7c-17.1,0-21.8,8.4-31.9,11.6c-5.7,1.8-10.4,2-13.4,1.7c-1.9-0.2-3.5,1.3-3.5,3.3v82.7
		c0,3.3,2.7,5.9,5.9,5.9h47.6c0.7,0,1.2,0.6,1.2,1.2l0,0c0,1.8,1.5,3.3,3.3,3.3H3299.4z"/>
	<path class="st1" d="M3302.2-1265.6c0,0,1.8-9.2,17.7-9.9c17.6-0.8,22.4,8.6,32.9,12c1.3,0.4,2.5,0.7,3.6,1
		c1.5,0.3,2.6,1.7,2.6,3.3v67.4c0,1.8-1.5,3.3-3.3,3.3h-43.4c-1.7,0-3.3-0.7-4.5-1.9l-3.6-3.6c-1.2-1.2-1.9-2.8-1.9-4.5
		L3302.2-1265.6z"/>
	<path class="st1" d="M3767.2-532.4v-34.4c0-2.7,2.2-4.9,4.9-4.9l0,0c2.7,0,4.9,2.2,4.9,4.9v37c0,5.7-4.4,16.4-15,20.4v63.9
		c0,2.7-2.2,4.9-4.9,4.9l0,0c-2.7,0-4.9-2.2-4.9-4.9v-63.9c-10.7-4-15-14.7-15-20.4v-37c0-2.7,2.2-4.9,4.9-4.9l0,0
		c2.7,0,4.9,2.2,4.9,4.9v34.4c0,1.4,1.2,2.6,2.6,2.6c1.4,0,2.6-1.2,2.6-2.6v-34.4c0-2.7,2.2-4.9,4.9-4.9l0,0c2.7,0,4.9,2.2,4.9,4.9
		v34.4c0,1.4,1.2,2.6,2.6,2.6S3767.2-530.9,3767.2-532.4z"/>
	<path class="st1" d="M3802.7-506.8c-8-7.7-13.1-18.5-13.1-30.4c0-13.3,6.2-25.1,15.8-32.8c2.6-2.1,6.7-0.6,7.1,2.7
		c0,0.2,0,0.4,0,0.6v34.4v23v63.9c0,2.7-2.2,4.9-4.9,4.9l0,0c-2.7,0-4.9-2.2-4.9-4.9L3802.7-506.8L3802.7-506.8z"/>
	<path class="st1" d="M3751.2-256.1L3751.2-256.1c-4.1,0.3-7.7-2.8-8.1-6.9l-3.2-40.8c-0.3-4.1,2.8-7.7,6.9-8.1l0,0
		c4.1-0.3,7.7,2.8,8.1,6.9l3.2,40.8C3758.4-260,3755.4-256.4,3751.2-256.1z"/>
	<path class="st1" d="M3735.3-263.9l-10.8-3.8l-2.4-28l10.2-5.6l0,0l-0.4-5.2c-0.6-8.1,5.5-15.3,13.6-15.9l1-0.1
		c8.1-0.6,15.3,5.5,15.9,13.6l3.7,47.4c0.6,8.1-5.5,15.3-13.6,15.9l-1,0.1c-8.1,0.6-15.3-5.5-15.9-13.6L3735.3-263.9L3735.3-263.9z"
		/>
	<polygon class="st1" points="3738,-274.1 3733.5,-275.7 3732.5,-287.5 3736.8,-289.9 	"/>
	<path class="st1" d="M3798.4-256.1L3798.4-256.1c4.1,0.3,7.7-2.8,8.1-6.9l3.2-40.8c0.3-4.1-2.8-7.7-6.9-8.1l0,0
		c-4.1-0.3-7.7,2.8-8.1,6.9l-3.2,40.8C3791.2-260,3794.3-256.4,3798.4-256.1z"/>
	<path class="st1" d="M3814.4-263.9l10.8-3.8l2.4-28l-10.2-5.6l0,0l0.4-5.2c0.6-8.1-5.5-15.3-13.6-15.9l-1-0.1
		c-8.1-0.6-15.3,5.5-15.9,13.6l-3.7,47.4c-0.6,8.1,5.5,15.3,13.6,15.9l1,0.1c8.1,0.6,15.3-5.5,15.9-13.6L3814.4-263.9L3814.4-263.9z
		"/>
	<polygon class="st1" points="3811.6,-274.1 3816.2,-275.7 3817.2,-287.5 3812.9,-289.9 	"/>
	<path class="st1" d="M3774.8-364c27,0,48.8,21.9,48.8,48.8c0,2.7-0.2,5.3-0.6,7.8l0,0c0,0.1,0,0.2,0,0.2c0,3.3,2.6,5.9,5.9,5.9
		c2.8,0,5.2-2,5.8-4.7l0,0c0.5-3,0.7-6.1,0.7-9.2c0-33.5-27.1-60.6-60.6-60.6s-60.6,27.1-60.6,60.6c0,3.1,0.2,6.2,0.7,9.2l0,0
		c0.6,2.7,2.9,4.7,5.8,4.7c3.3,0,5.9-2.6,5.9-5.9c0-0.1,0-0.2,0-0.2l0,0c-0.4-2.5-0.6-5.1-0.6-7.8C3726-342.1,3747.9-364,3774.8-364
		z"/>
	<g class="st2">
		<path d="M-6.2,38.9c-0.1-0.3-0.2-0.6-0.3-0.8l0,0l0,0c-2.7-6.2-8.9-10.2-15.7-10.2c-3.7,0-7.2,1.2-10.2,3.4
			c-2.6,1.5-5.6,2.3-8.6,2.3s-6-0.9-8.6-2.5c-3-2.2-6.5-3.4-10.2-3.4c-6.8,0-13,4.1-15.7,10.2l0,0l0,0c-0.1,0.3-0.2,0.6-0.3,0.8
			c-4.9,12.2-7.3,25.2-7.3,38.5c0,2,0.1,4,0.2,6c0.3,3.9,3.7,6.9,7.6,6.9c1.7,0,3.3-0.6,4.7-1.6c5.1-3.8,9.8-8.3,13.8-13.2
			c5-2.1,10.4-3.2,15.9-3.2S-30,73.2-25,75.3c4,5,8.7,9.4,13.8,13.2c1.3,1.1,3,1.6,4.7,1.6c3.9,0,7.2-3.1,7.6-7c0.1-2,0.2-4,0.2-6
			C1.2,64.1-1.3,51.1-6.2,38.9z M-0.2,83.3c-0.3,3.3-3.1,5.9-6.4,5.9c-1.4,0-2.8-0.5-4-1.4c-5.1-3.8-9.7-8.2-13.7-13.2
			c-0.1-0.1-0.1-0.1-0.2-0.2C-29.7,72.2-35.3,71-41,71s-11.3,1.1-16.5,3.4c-0.1,0-0.2,0.1-0.2,0.2c-4,4.9-8.6,9.4-13.7,13.2
			c-1.1,0.9-2.5,1.4-4,1.4c-3.3,0-6.1-2.6-6.4-5.9c-0.1-2-0.2-4-0.2-5.9c0-13.1,2.4-25.9,7.3-38l0,0l0.3-0.8
			c2.5-5.8,8.3-9.6,14.6-9.6c3.5,0,6.8,1.1,9.5,3.2l0,0c2.7,1.8,5.9,2.7,9.2,2.7s6.5-0.9,9.2-2.7l0,0c2.8-2.1,6.1-3.2,9.5-3.2
			c6.3,0,12.1,3.8,14.6,9.6l0.3,0.8l0,0c4.8,12.1,7.3,24.9,7.3,38C0,79.3-0.1,81.3-0.2,83.3z"/>
		<path d="M-27.9,49.5c-2.3,0-4.2,1.9-4.2,4.2s1.9,4.2,4.2,4.2c2.3,0,4.2-1.9,4.2-4.2S-25.5,49.5-27.9,49.5z M-27.9,56.8
			c-1.7,0-3.1-1.4-3.1-3.1c0-1.7,1.4-3.1,3.1-3.1s3.1,1.4,3.1,3.1C-24.8,55.4-26.2,56.8-27.9,56.8z"/>
		<path d="M-12.3,49.5c-2.3,0-4.2,1.9-4.2,4.2s1.9,4.2,4.2,4.2c2.3,0,4.2-1.9,4.2-4.2S-9.9,49.5-12.3,49.5z M-12.3,56.8
			c-1.7,0-3.1-1.4-3.1-3.1c0-1.7,1.4-3.1,3.1-3.1s3.1,1.4,3.1,3.1C-9.2,55.4-10.6,56.8-12.3,56.8z"/>
		<path d="M-20.1,50.2c2.3,0,4.2-1.9,4.2-4.2s-1.8-4.3-4.2-4.3c-2.3,0-4.2,1.9-4.2,4.2S-22.4,50.2-20.1,50.2z M-20.1,42.9
			c1.7,0,3.1,1.4,3.1,3.1c0,1.7-1.4,3.1-3.1,3.1s-3.1-1.4-3.1-3.1C-23.1,44.3-21.8,42.9-20.1,42.9z"/>
		<path d="M-20.1,57.3c-2.3,0-4.2,1.9-4.2,4.2s1.9,4.2,4.2,4.2c2.3,0,4.2-1.9,4.2-4.2S-17.7,57.3-20.1,57.3z M-20.1,64.6
			c-1.7,0-3.1-1.4-3.1-3.1c0-1.7,1.4-3.1,3.1-3.1s3.1,1.4,3.1,3.1S-18.4,64.6-20.1,64.6z"/>
		<path d="M-50.8,49.5h-5.4v-5.4c0-1.3-1.1-2.4-2.4-2.4h-2.2c-1.3,0-2.4,1.1-2.4,2.4v5.4h-5.4c-1.3,0-2.4,1.1-2.4,2.4v2.2
			c0,1.3,1.1,2.4,2.4,2.4h5.4v5.4c0,1.3,1.1,2.4,2.4,2.4h2.2c1.3,0,2.4-1.1,2.4-2.4v-5.4h5.4c1.3,0,2.4-1.1,2.4-2.4v-2.2
			C-48.4,50.6-49.5,49.5-50.8,49.5z M-49.6,54.1c0,0.7-0.6,1.2-1.2,1.2h-6c-0.3,0-0.6,0.3-0.6,0.6v6c0,0.7-0.6,1.2-1.2,1.2h-2.2
			c-0.7,0-1.2-0.6-1.2-1.2v-6c0-0.3-0.3-0.6-0.6-0.6h-6c-0.7,0-1.2-0.6-1.2-1.2v-2.2c0-0.7,0.6-1.2,1.2-1.2h6c0.3,0,0.6-0.3,0.6-0.6
			v-6c0-0.7,0.6-1.2,1.2-1.2h2.2c0.7,0,1.2,0.6,1.2,1.2v6c0,0.3,0.3,0.6,0.6,0.6h6c0.7,0,1.2,0.6,1.2,1.2V54.1z"/>
	</g>
	<path class="st2" d="M-19.1,102.9c-0.1,0-0.2,0-0.3,0c-0.6-0.1-1.1-0.5-1.3-1l-17.4-35L-57.5,84c-0.2,0.2-0.3,0.4-0.2,0.6l1.1,9.2
		c0.3,2.3-0.5,4.6-2.2,6.3l-1.4,1.4c-0.4,0.4-1,0.6-1.6,0.5c-0.6-0.1-1.1-0.5-1.4-1l-4.5-9.2l-5.9,1.8c-0.6,0.2-1.2,0-1.6-0.4
		c-0.4-0.4-0.6-1-0.4-1.6l1.8-5.9l-9.2-4.5c-0.5-0.3-0.9-0.8-1-1.4s0.1-1.2,0.5-1.6l1.4-1.4c1.7-1.7,3.9-2.5,6.3-2.2l9.2,1.1
		c0.2,0,0.5-0.1,0.6-0.2l17.1-19.4l-35-17.4c-0.5-0.3-0.9-0.8-1-1.3c-0.1-0.6,0.1-1.2,0.5-1.6l5.1-5.1c1.3-1.3,3.2-1.9,5.1-1.6
		l42.3,7.7l9.3-10.6c2.5-2.9,5.3-5.3,8.3-7.1C-9.2,16-2,13.5,1.3,16.8s0.8,10.4-2.4,15.5c-1.8,3-4.2,5.7-7.1,8.3l-10.6,9.3l7.7,42.3
		c0.3,1.9-0.3,3.8-1.6,5.1l-5.1,5.1C-18.1,102.7-18.6,102.9-19.1,102.9z M-37.9,65.4L-37.9,65.4c0.3,0,0.4,0.2,0.5,0.3l17.7,35.7
		c0.1,0.2,0.3,0.3,0.5,0.4c0.2,0,0.4,0,0.6-0.2l5.1-5.1c1.1-1.1,1.5-2.6,1.3-4.1L-20,49.8c0-0.2,0-0.4,0.2-0.5L-9,39.7
		c2.8-2.5,5.1-5.1,6.9-8c3.8-6.1,4.9-11.8,2.6-14.1s-7.9-1.2-14.1,2.6c-2.9,1.8-5.5,4.1-8,6.9l-9.6,10.8c-0.1,0.2-0.3,0.2-0.5,0.2
		l-42.6-7.8c-1.5-0.3-3,0.2-4.1,1.3l-5.1,5.1c-0.2,0.2-0.2,0.4-0.2,0.6s0.2,0.4,0.4,0.5l35.7,17.7c0.2,0.1,0.3,0.2,0.3,0.4
		s0,0.4-0.1,0.5l-17.6,20c-0.4,0.5-1,0.7-1.6,0.6l-9.2-1.1c-2-0.2-3.9,0.4-5.3,1.8l-1.4,1.4c-0.2,0.2-0.2,0.4-0.2,0.6
		s0.2,0.4,0.4,0.5l9.6,4.7c0.3,0.1,0.4,0.4,0.3,0.7l-1.9,6.3c-0.1,0.2,0.1,0.4,0.1,0.4c0.1,0.1,0.2,0.2,0.4,0.1l0,0l6.3-1.9
		c0.3-0.1,0.6,0,0.7,0.3l4.7,9.6c0.1,0.2,0.3,0.3,0.5,0.4c0.2,0,0.4,0,0.6-0.2l1.4-1.4c1.4-1.4,2.1-3.3,1.8-5.3l-1.1-9.2
		c-0.1-0.6,0.2-1.2,0.6-1.6l20-17.6C-38.2,65.4-38.1,65.4-37.9,65.4z"/>
	<g class="st2">
		<path d="M-59.4,71.9c-1.8-1.8-4.7-1.8-6.4,0l-20.7,20.7c-1.8,1.8-1.8,4.7,0,6.4l5.5,5.5c0.9,0.9,2,1.3,3.2,1.3
			c1.2,0,2.4-0.5,3.2-1.3l20.7-20.7c1.8-1.8,1.8-4.7,0-6.4L-59.4,71.9z M-54.7,83.1l-20.7,20.6c-0.6,0.6-1.5,1-2.4,1
			c-0.9,0-1.8-0.3-2.4-1l-5.5-5.5c-1.3-1.3-1.3-3.5,0-4.8L-65,72.8c0.7-0.7,1.5-1,2.4-1c0.9,0,1.7,0.3,2.4,1l5.5,5.5
			C-53.4,79.6-53.4,81.7-54.7,83.1z"/>
		<path d="M-4.1,22.2C-17.3,8.9-38.8,8.9-52,22.2c-11.8,11.8-13.2,30.6-3.4,44l-1.1,1.1c-1,1-1,2.7,0,3.7l3.6,3.6c1,1,2.7,1,3.7,0
			l1.1-1.1c5.9,4.4,13,6.5,20,6.5c8.7,0,17.5-3.3,24-9.9C9.1,56.8,9.1,35.4-4.1,22.2z M-4.9,69.2c-11.5,11.5-29.9,12.8-42.8,3
			c-0.1-0.1-0.2-0.1-0.4-0.1s-0.3,0.1-0.4,0.2l-1.5,1.4c-0.5,0.5-1.5,0.6-2.1,0l-3.6-3.6c-0.3-0.3-0.4-0.6-0.4-1s0.2-0.8,0.4-1
			l1.4-1.4c0.2-0.2,0.2-0.5,0.1-0.8c-9.8-12.9-8.5-31.4,3-42.8c12.7-12.7,33.5-12.7,46.2,0C7.8,35.7,7.8,56.5-4.9,69.2z"/>
		<path d="M-9.1,27.1c-10.4-10.4-27.5-10.4-37.9,0C-57.5,37.6-57.5,54.6-47,65c5.1,5.1,11.8,7.9,19,7.9s13.9-2.8,19-7.9
			C1.4,54.6,1.4,37.6-9.1,27.1z M-9.9,64.2c-4.8,4.8-11.3,7.5-18.1,7.5c-6.9,0-13.3-2.7-18.1-7.5c-10-10-10-26.3,0-36.3
			c5-5,11.6-7.5,18.1-7.5c6.6,0,13.1,2.5,18.1,7.5C0.1,38,0.1,54.2-9.9,64.2z"/>
	</g>
	<g class="st2">
		<path d="M-45,63c0.8,0.8,1.9,1.2,3,1.2s2.1-0.4,3-1.2l32.9-32.9c0.8-0.8,1.2-1.8,1.2-3c0-1.1-0.4-2.2-1.2-3
			c-0.8-0.8-1.8-1.2-3-1.2c-1.1,0-2.2,0.4-3,1.2l-32.9,33C-46.6,58.7-46.6,61.4-45,63z M-11.2,25c0.6-0.6,1.3-0.9,2.1-0.9
			c0.8,0,1.6,0.3,2.1,0.9c0.6,0.6,0.9,1.3,0.9,2.1c0,0.8-0.3,1.6-0.9,2.1l-32.9,33c-1.2,1.2-3.1,1.2-4.3,0s-1.2-3.1,0-4.3L-11.2,25z
			"/>
		<path d="M-75.7,35.6c1,0,2-0.4,2.7-1.1c1.5-1.5,1.5-3.9,0-5.4s-3.9-1.5-5.4,0s-1.5,3.9,0,5.4C-77.7,35.2-76.7,35.6-75.7,35.6z
			 M-77.6,29.9c0.5-0.5,1.2-0.8,1.9-0.8c0.7,0,1.4,0.3,1.9,0.8c1,1,1,2.7,0,3.8c-1,1-2.7,1-3.8,0C-78.7,32.6-78.7,30.9-77.6,29.9z"
			/>
		<path d="M-50.2,24.6c-0.8,1.4-0.5,3.1,0.6,4.2c0.7,0.7,1.5,1,2.5,1c0.9,0,1.8-0.4,2.5-1c1.2-1.2,1.4-3.1,0.4-4.4
			c-0.4-0.5-0.8-1.1-1.2-1.5c-0.5-0.5-1-0.9-1.5-1.2c-0.2-0.1-0.5-0.1-0.7,0c-0.4,0.3-0.7,0.6-1,0.9C-49.2,23.1-49.8,23.8-50.2,24.6
			L-50.2,24.6z M-49.2,25.2c0.4-0.7,0.8-1.3,1.4-1.8c0.2-0.2,0.4-0.4,0.6-0.5c0.3,0.2,0.7,0.5,1,0.8c0.4,0.4,0.8,0.9,1.1,1.3
			c0.6,0.9,0.5,2.2-0.3,3c-0.4,0.4-1,0.7-1.7,0.7s-1.2-0.2-1.7-0.7C-49.5,27.2-49.7,26.1-49.2,25.2z"/>
		<path d="M-21.3,26.2c1,0,2-0.4,2.7-1.1c1.5-1.5,1.5-3.9,0-5.4s-3.9-1.5-5.4,0s-1.5,3.9,0,5.4C-23.3,25.8-22.3,26.2-21.3,26.2z
			 M-23.2,20.4c0.5-0.5,1.2-0.8,1.9-0.8c0.7,0,1.4,0.3,1.9,0.8c1,1,1,2.7,0,3.8c-1,1-2.7,1-3.8,0S-24.3,21.5-23.2,20.4z"/>
		<path d="M-66.2,34.9c0.6,0.6,1.3,0.9,2.1,0.9c0.8,0,1.6-0.3,2.1-0.9c0.9-0.9,1.1-2.1,0.7-3.3v-0.1c-1.5-3.2-0.9-7.1,1.7-9.6
			c2.1-2.1,5-2.9,7.8-2.3c-0.4,0.3-0.8,0.6-1.2,1c-1.6,1.6-2.4,3.7-2.4,5.9s0.9,4.3,2.4,5.9c1.6,1.6,3.7,2.4,5.9,2.4
			s4.3-0.9,5.9-2.4c1.6-1.6,2.4-3.7,2.4-5.9s-0.9-4.3-2.4-5.9c-0.3-0.3-0.6-0.6-1-0.8c2.6-0.5,5.4,0.4,7.3,2.3
			c2.8,2.8,3.2,7.2,1.1,10.4c-2.1,2.9-4.4,5.7-7,8.3c-3.3,3.3-6.9,6.2-10.8,8.7c-0.1,0.1-0.3,0.2-0.4,0.3c-1.2,1.2-1.2,3.2,0,4.4
			c0.6,0.6,1.4,0.9,2.2,0.9c0.6,0,1.2-0.2,1.8-0.6c4.2-2.6,8.1-5.7,11.6-9.2c2.8-2.8,5.4-5.9,7.6-9.1c3.8-5.8,3-13.5-1.9-18.4
			c-4.3-4.3-10.8-5.4-16.3-3c-5.6-2.8-12.5-1.7-16.9,2.7s-5.5,11.1-2.8,16.7C-66.6,34.5-66.4,34.7-66.2,34.9z M-63.1,18.3
			c4.1-4.1,10.6-5,15.8-2.3c0.2,0.1,0.4,0.1,0.5,0c5.2-2.4,11.3-1.3,15.3,2.7c4.5,4.5,5.2,11.5,1.8,16.8c-2.2,3.2-4.7,6.2-7.5,9
			c-3.5,3.5-7.4,6.6-11.6,9.2h-0.1c-0.7,0.4-1.6,0.2-2.2-0.4c-0.7-0.7-0.7-2,0-2.7c0.1-0.1,0.1-0.1,0.2-0.2
			c3.9-2.5,7.6-5.5,10.9-8.8c2.6-2.6,5-5.4,7.1-8.4c2.4-3.7,1.9-8.7-1.2-11.9c-1.8-1.8-4.2-2.8-6.7-2.8c-1,0-2.1,0.2-3.1,0.5
			c-0.2,0.1-0.4,0.3-0.4,0.5c0,0.2,0.1,0.5,0.3,0.6c0.7,0.3,1.3,0.8,1.9,1.4c1.3,1.3,2.1,3.1,2.1,5c0,1.9-0.7,3.7-2.1,5
			c-1.3,1.3-3.1,2.1-5,2.1s-3.7-0.7-5-2.1c-1.3-1.4-2.1-3.1-2.1-5s0.7-3.7,2.1-5c0.6-0.6,1.3-1.1,2.1-1.4c0.2-0.1,0.3-0.3,0.3-0.6
			c0-0.2-0.2-0.4-0.4-0.5c-3.6-1.4-7.6-0.5-10.4,2.2c-2.9,2.9-3.7,7.3-1.9,11l0,0c0.3,0.7,0.1,1.4-0.4,2c-0.7,0.7-1.9,0.7-2.6,0
			c-0.1-0.1-0.2-0.3-0.3-0.4C-68.2,28.5-67.1,22.4-63.1,18.3z"/>
		<path d="M-16.4,91.1c-1.5,1.5-1.5,3.9,0,5.4c0.7,0.7,1.7,1.1,2.7,1.1s2-0.4,2.7-1.1c1.5-1.5,1.5-3.9,0-5.4
			C-12.5,89.6-14.9,89.6-16.4,91.1z M-11.8,95.7c-1,1-2.7,1-3.8,0c-1-1-1-2.7,0-3.8c0.5-0.5,1.2-0.8,1.9-0.8c0.7,0,1.4,0.3,1.9,0.8
			C-10.8,93-10.8,94.6-11.8,95.7z"/>
		<path d="M-4.8,63.5c-0.5-0.5-1-0.9-1.5-1.2c-1.4-0.9-3.3-0.8-4.4,0.4c-0.7,0.7-1,1.5-1,2.5c0,0.9,0.4,1.8,1,2.5
			c0.7,0.7,1.6,1,2.5,1c0.6,0,1.2-0.1,1.7-0.4l0,0c0.7-0.4,1.4-1,2.1-1.6c0.3-0.3,0.6-0.7,0.9-1c0.1-0.2,0.2-0.5,0-0.7
			C-3.9,64.4-4.3,63.9-4.8,63.5z M-5.3,65.9c-0.5,0.5-1.1,1-1.8,1.4l0,0c-0.9,0.5-2.1,0.4-2.8-0.4c-0.4-0.4-0.7-1-0.7-1.7
			c0-0.6,0.2-1.2,0.7-1.7s1.1-0.7,1.7-0.7c0.5,0,0.9,0.1,1.3,0.4c0.5,0.3,0.9,0.7,1.3,1.1c0.3,0.3,0.6,0.6,0.8,1
			C-4.9,65.5-5.1,65.7-5.3,65.9z"/>
		<path d="M3.2,65.1c2.5-5.5,1.3-12-3-16.3c-4.8-4.8-12.5-5.7-18.3-1.9c-3.2,2.2-6.3,4.8-9.1,7.6c-3.5,3.5-6.6,7.4-9.2,11.6
			c-0.9,1.2-0.7,2.9,0.3,4c1.2,1.2,3.2,1.2,4.4,0c0.1-0.1,0.2-0.2,0.3-0.4c2.5-3.9,5.4-7.5,8.6-10.7c2.6-2.6,5.3-4.9,8.2-7
			c3.3-2.1,7.7-1.7,10.4,1.1c1.9,1.9,2.8,4.7,2.3,7.3c-0.3-0.3-0.5-0.7-0.8-1C-4.3,57.8-6.4,57-8.6,57c-2.2,0-4.3,0.9-5.9,2.4
			c-1.6,1.6-2.4,3.7-2.4,5.9c0,2.2,0.9,4.3,2.4,5.9c1.6,1.6,3.7,2.4,5.9,2.4c2.2,0,4.3-0.9,5.9-2.4c0.4-0.4,0.7-0.8,1-1.2
			c0.6,2.8-0.2,5.8-2.3,7.8c-2.5,2.5-6.4,3.2-9.6,1.7h-0.1c-1.1-0.5-2.4-0.2-3.3,0.7c-0.6,0.6-0.9,1.3-0.9,2.1
			c0,0.8,0.3,1.6,0.9,2.1c0.2,0.2,0.5,0.4,0.7,0.5c2,1,4.2,1.5,6.3,1.5c3.8,0,7.5-1.5,10.3-4.3C5,77.6,6,70.7,3.2,65.1z M-0.3,81.2
			c-4,4-10.2,5.1-15.3,2.6c-0.2-0.1-0.3-0.2-0.4-0.3c-0.3-0.3-0.5-0.8-0.5-1.3s0.2-1,0.5-1.3c0.4-0.4,0.8-0.5,1.3-0.5
			c0.2,0,0.4,0,0.6,0.1l0,0c3.7,1.8,8.1,1,11-1.9c2.7-2.7,3.6-6.8,2.2-10.4C-1,68-1.2,67.8-1.4,67.8s-0.5,0.1-0.6,0.3
			c-0.4,0.8-0.8,1.5-1.4,2.1c-1.3,1.3-3.1,2.1-5,2.1s-3.7-0.7-5-2.1c-1.3-1.3-2.1-3.1-2.1-5s0.7-3.7,2.1-5c1.3-1.3,3.1-2.1,5-2.1
			s3.7,0.7,5,2.1c0.6,0.6,1,1.2,1.4,1.9c0.1,0.2,0.3,0.3,0.6,0.3c0.2,0,0.4-0.2,0.5-0.4c1.2-3.5,0.3-7.2-2.3-9.8
			c-3.2-3.2-8.2-3.7-11.9-1.2c-3,2.1-5.8,4.5-8.4,7.1c-3.3,3.3-6.3,7-8.8,10.9c-0.1,0.1-0.1,0.2-0.2,0.2c-0.7,0.7-2,0.7-2.7,0
			c-0.6-0.6-0.7-1.5-0.4-2.2v-0.1c2.6-4.2,5.7-8.1,9.2-11.6c2.8-2.8,5.8-5.3,8.9-7.4c5.3-3.4,12.3-2.7,16.8,1.8
			c4,4,5.1,10.1,2.6,15.3c-0.1,0.2-0.1,0.4,0,0.5C4.8,70.5,3.8,77-0.3,81.2z"/>
		<path d="M-19.7,63.7C-19.7,63.7-19.7,63.6-19.7,63.7c-0.3-0.3-0.5-0.4-0.8-0.3c-0.1,0-0.2,0.1-0.2,0.2c-1.3,1.4-2.6,2.9-3.8,4.4
			c-0.5,0.6-0.7,1.4-0.6,2.1c0.3,2.1-0.1,3.8-1.1,4.8c-1.6,1.6-4.8,1.6-8.7,0.1c-4.1-1.6-8.6-4.8-12.7-8.9l-0.3-0.4
			c-4.1-4.1-7.2-8.6-8.9-12.7c-1.5-3.9-1.5-7.1,0.1-8.7c1-1,2.7-1.4,4.8-1.1c0.8,0.1,1.5-0.1,2.1-0.6c1.5-1.2,3-2.5,4.4-3.9
			c0.1-0.1,0.1-0.1,0.2-0.2c0.1-0.3,0-0.6-0.2-0.7l-0.1-0.1c-7-3.2-12.8-3.2-15.9-0.1c-0.7,0.7-1.2,1.5-1.6,2.4c0,0,0,0,0,0.1
			l-12.7,32l-10.9,26.2v0.1c-0.5,1.8,0,3.6,1.3,4.9c1,1,2.3,1.5,3.6,1.5c0.4,0,0.9-0.1,1.3-0.2h0.1L-54.1,94l32-12.7c0,0,0,0,0.1,0
			c0.9-0.4,1.7-0.9,2.4-1.6C-16.4,76.5-16.5,70.7-19.7,63.7z M-20.4,78.8c-0.6,0.6-1.2,1-2,1.3l0,0l-32.1,12.8l-26.2,10.6
			c-1.3,0.3-2.8,0-3.8-1s-1.4-2.4-1-3.8l10.6-26.2l12.8-32.1l0,0c0.3-0.8,0.8-1.4,1.3-2c2.7-2.7,7.7-2.6,13.9,0
			c-1.1,1.2-2.4,2.3-3.6,3.3c-0.3,0.3-0.8,0.4-1.2,0.3c-2.5-0.3-4.5,0.2-5.8,1.5c-2,2-2.1,5.5-0.3,9.9c1.7,4.3,4.9,8.9,9.1,13.1
			l0.3,0.3c4.2,4.2,8.9,7.4,13.1,9.1c4.4,1.8,8,1.6,9.9-0.3c1.3-1.3,1.8-3.3,1.5-5.8c-0.1-0.4,0.1-0.9,0.3-1.2
			c1-1.3,2.1-2.5,3.2-3.7C-17.7,71.1-17.7,76.2-20.4,78.8z"/>
	</g>
	<g class="st2">
		<path d="M-41,10.7c-26.7,0-48.4,21.7-48.4,48.4s21.7,48.3,48.4,48.3S7.4,85.7,7.4,59.1S-14.3,10.7-41,10.7z M-41,106.3
			c-26,0-47.2-21.2-47.2-47.2S-67,11.9-41,11.9S6.2,33.1,6.2,59.1S-15,106.3-41,106.3z"/>
		<path d="M-17.1,51.6c-4.1,0-7.5,3.3-7.5,7.5s3.3,7.5,7.5,7.5s7.5-3.3,7.5-7.5S-12.9,51.6-17.1,51.6z M-17.1,65.3
			c-3.5,0-6.3-2.8-6.3-6.3s2.8-6.3,6.3-6.3s6.3,2.8,6.3,6.3C-10.8,62.5-13.6,65.3-17.1,65.3z"/>
		<path d="M-41,51.6c-4.1,0-7.5,3.3-7.5,7.5s3.3,7.5,7.5,7.5s7.5-3.3,7.5-7.5S-36.9,51.6-41,51.6z M-41,65.3c-3.5,0-6.3-2.8-6.3-6.3
			s2.8-6.3,6.3-6.3s6.3,2.8,6.3,6.3S-37.5,65.3-41,65.3z"/>
		<path d="M-64.9,51.6c-4.1,0-7.5,3.3-7.5,7.5s3.3,7.5,7.5,7.5c4.2,0,7.5-3.3,7.5-7.5S-60.8,51.6-64.9,51.6z M-64.9,65.3
			c-3.5,0-6.3-2.8-6.3-6.3s2.8-6.3,6.3-6.3s6.3,2.8,6.3,6.3C-58.7,62.5-61.5,65.3-64.9,65.3z"/>
	</g>
	<g class="st2">
		<path d="M-72.7,67.7h-10.9c-1.4,0-2.6,1.1-2.6,2.6v21c0,1.4,1.1,2.6,2.6,2.6h10.9c1.4,0,2.6-1.1,2.6-2.6v-21
			C-70.2,68.8-71.3,67.7-72.7,67.7z M-71.4,91.2c0,0.8-0.6,1.4-1.4,1.4h-10.8c-0.8,0-1.4-0.6-1.4-1.4v-21c0-0.8,0.6-1.4,1.4-1.4
			h10.9c0.8,0,1.4,0.6,1.4,1.4L-71.4,91.2L-71.4,91.2z"/>
		<path d="M4.1,72.9c-0.4-3-2.8-5.5-5.8-6.1C-4,66.5-6.3,67.2-8,68.7l-7.7,7.6c-0.2,0.2-0.2,0.5-0.1,0.7c0.6,1,1,2.2,0.9,3.4
			c-0.1,3.1-2.9,5.7-6.1,5.7h-12.9c-0.3,0-0.6-0.2-0.7-0.5c0-0.2,0-0.4,0.1-0.5s0.3-0.2,0.5-0.2h13c2.6,0,4.8-2,4.9-4.6
			c0-1.3-0.4-2.5-1.3-3.4s-2.1-1.4-3.4-1.4h-11.5c-6.1-6.3-14.2-9.8-23-9.8c-4.5,0-8.8,0.9-12.9,2.7c-0.2,0.1-0.3,0.3-0.3,0.5v19.8
			c0,1.1,0.9,2,2,2h10.4c0.1,0,0.2,0,0.3,0.1l11.3,6c0.7,0.4,1.5,0.6,2.2,0.6h25.9c1.3,0,2.6-0.6,3.5-1.6L2.7,78.4
			C3.9,76.9,4.4,74.9,4.1,72.9z M1.8,77.7L-13.8,95c-0.7,0.8-1.7,1.2-2.7,1.2h-25.9c-0.6,0-1.2-0.1-1.7-0.4l-11.3-6
			c-0.3-0.1-0.5-0.2-0.8-0.2h-10.4c-0.5,0-0.8-0.4-0.8-0.8V69.3c3.8-1.6,7.9-2.5,12.1-2.5c8.5,0,16.4,3.4,22.3,9.6
			c0.1,0.1,0.3,0.2,0.4,0.2h11.8c1,0,1.9,0.4,2.5,1.1c0.7,0.7,1,1.6,1,2.6c-0.1,1.9-1.7,3.4-3.7,3.4h-13c-0.5,0-1,0.2-1.4,0.6
			c-0.3,0.4-0.5,0.9-0.4,1.4c0.1,0.8,0.9,1.5,1.8,1.5h13c3.9,0,7.2-3.1,7.3-6.8c0-1.3-0.3-2.5-0.9-3.6l7.3-7.2
			c1.4-1.3,3.3-1.9,5.2-1.5c2.5,0.4,4.5,2.5,4.9,5.1C3.2,74.8,2.8,76.4,1.8,77.7z"/>
		<path d="M-52.9,39.1c0.1,0.8,1.1,6.2,11,15.7c10.7,10.3,13.4,12.4,16.3,12.5l0,0l0,0c2.9-0.1,5.6-2.2,16.3-12.5
			c9.9-9.5,10.9-14.9,11-15.7l0,0C2,38,2.1,36.9,2.1,35.7c0-8.2-6.7-14.9-14.9-14.9c-5.3,0-10.1,2.8-12.8,7.3
			c-2.7-4.5-7.5-7.3-12.8-7.3c-8.2,0-14.9,6.7-14.9,14.9C-53.3,36.8-53.1,38-52.9,39.1L-52.9,39.1z M-38.3,21.9
			c5.2,0,9.9,2.9,12.3,7.6c0.2,0.4,0.8,0.4,1,0c2.4-4.7,7.1-7.6,12.3-7.6C-5.1,21.9,1,28.1,1,35.7c0,1-0.1,2.1-0.3,3.1v0.1
			C0.7,39,0.1,44.2-10,54c-10.3,9.9-13,12.1-15.5,12.2C-28,66-30.8,63.9-41,54c-10.1-9.7-10.7-15-10.7-15.1c0-0.1,0-0.1,0-0.2
			c-0.2-1-0.3-2-0.3-3.1C-52.1,28.1-45.9,21.9-38.3,21.9z"/>
		<path d="M-47.3,38.8c0,0.2,0.4,4.6,8.8,12.6c8.6,8.3,10.6,9.8,13,9.9h0.2c2.3-0.1,4.4-1.7,13-9.9c8.4-8,8.8-12.4,8.8-12.6l0,0
			c0.2-0.8,0.3-1.6,0.3-2.5c0-5.6-4.5-10.1-10.1-10.1c-3.9,0-7.4,2.2-9.1,5.7c-0.5,1.2-1.6,1.9-2.9,1.9h-0.2c-1.3,0-2.4-0.8-2.9-1.9
			c0,0,0,0,0-0.1c-1.7-3.5-5.2-5.7-9.1-5.7c-5.6,0-10.1,4.5-10.1,10.1C-47.6,37.1-47.5,38-47.3,38.8L-47.3,38.8z M-37.5,27.4
			c3.4,0,6.5,1.9,8,5l0,0c0.7,1.6,2.3,2.7,4,2.7h0.2c1.7,0,3.3-1,4-2.6c1.5-3.1,4.6-5,8-5c4.9,0,8.9,4,8.9,8.9
			c0,0.8-0.1,1.6-0.3,2.3c0,0.1,0,0.1,0,0.2c-0.1,0.6-1,4.7-8.4,11.8c-8.1,7.8-10.3,9.5-12.2,9.6h-0.1c-1.9-0.1-4.1-1.8-12.2-9.6
			c-7.4-7.1-8.3-11.2-8.4-11.8c0-0.1,0-0.1,0-0.2c-0.2-0.7-0.3-1.5-0.3-2.3C-46.5,31.4-42.5,27.4-37.5,27.4z"/>
	</g>
	<g class="st2">
		<path d="M-15.9,20.4h-50.2c-4.2,0-7.6,3.4-7.6,7.6c0,0,0,0,0,0.1l6.5,63.5c0.3,3.4,3.3,6.1,6.6,6.1h39.1c3.3,0,6.3-2.8,6.6-6.1
			l6.5-63.5c0,0,0,0,0-0.1C-8.3,23.8-11.7,20.4-15.9,20.4z M-16,91.5c-0.3,2.8-2.7,5.1-5.4,5.1h-39.2c-2.7,0-5.2-2.3-5.4-5.1
			L-72.5,28c0-3.5,2.9-6.4,6.5-6.4h50.1c3.6,0,6.4,2.9,6.5,6.4L-16,91.5z"/>
		<path d="M-21,26.4h-40c-3.4,0-6.2,2.9-6.2,6.6l5.2,53.4c0.3,2.9,2.7,5.3,5.4,5.3h31.2c2.7,0,5.1-2.4,5.4-5.3l5.2-53.5
			C-14.8,29.4-17.6,26.4-21,26.4z M-21.2,86.3c-0.2,2.3-2.1,4.2-4.2,4.2h-31.2c-2.1,0-4-1.9-4.2-4.2L-66,33c0-2.9,2.3-5.3,5-5.3h40
			c2.8,0,5,2.4,5,5.3L-21.2,86.3z"/>
		<path d="M-21.3,45.4h-39.4c-0.2,0-0.3,0.1-0.4,0.2c-0.1,0.1-0.2,0.3-0.2,0.5l3.5,36.5c0.2,2.4,2.2,4.4,4.4,4.4h24.9
			c2.2,0,4.2-2,4.4-4.4l3.5-36.5c0-0.2,0-0.3-0.2-0.5C-21,45.4-21.1,45.4-21.3,45.4z M-25.3,82.4c-0.2,1.8-1.6,3.3-3.2,3.3h-24.9
			c-1.6,0-3.1-1.5-3.2-3.4L-60,46.4h38.1L-25.3,82.4z"/>
	</g>
	<g class="st2">
		<path d="M-41,17c-23.2,0-42.1,18.9-42.1,42.1s18.9,42.1,42.1,42.1S1.1,82.3,1.1,59.1S-17.8,17-41,17z M-41,100
			c-22.6,0-40.9-18.4-40.9-40.9s18.3-41,40.9-41S-0.1,36.5-0.1,59S-18.4,100-41,100z"/>
		<path d="M-41,24.4c-19.1,0-34.7,15.6-34.7,34.7S-60.1,93.7-41,93.7S-6.3,78.1-6.3,59S-21.9,24.4-41,24.4z M-41,92.6
			c-18.5,0-33.5-15-33.5-33.5s15-33.5,33.5-33.5s33.5,15,33.5,33.5C-7.5,77.5-22.5,92.6-41,92.6z"/>
		<path d="M-24.4,64.6c-1.4,0-2.7,0.7-3.5,1.9c-2.7,4.7-7.7,7.6-13,7.6s-10.4-2.9-13-7.6c0,0,0,0,0-0.1c-0.8-1.2-2.1-1.8-3.5-1.8
			c-2.3,0-4.2,1.9-4.2,4.2c0,0.6,0.1,1.2,0.4,1.8c4.2,7.3,12,11.9,20.4,11.9s16.3-4.6,20.4-12c0.2-0.5,0.4-1.1,0.4-1.7
			C-20.2,66.5-22.1,64.6-24.4,64.6z M-21.6,70c-4,7-11.4,11.3-19.4,11.3S-56.4,77-60.4,70c-0.2-0.4-0.3-0.8-0.3-1.2c0-1.7,1.4-3,3-3
			c1,0,2,0.5,2.5,1.3c2.9,5,8.3,8.1,14,8.1c5.8,0,11.2-3.1,14-8.1c0.6-0.8,1.5-1.3,2.5-1.3c1.7,0,3,1.4,3,3
			C-21.4,69.2-21.5,69.7-21.6,70z"/>
		<path d="M-50.6,59.7c3.6,0,6.5-4.4,6.5-9.8s-2.9-9.8-6.5-9.8s-6.5,4.4-6.5,9.8S-54.2,59.7-50.6,59.7z M-50.6,41.2
			c2.9,0,5.3,3.9,5.3,8.7s-2.4,8.7-5.3,8.7s-5.3-3.9-5.3-8.7S-53.5,41.2-50.6,41.2z"/>
		<path d="M-31.4,59.7c3.6,0,6.5-4.4,6.5-9.8s-2.9-9.8-6.5-9.8s-6.5,4.4-6.5,9.8S-35,59.7-31.4,59.7z M-31.4,41.2
			c2.9,0,5.3,3.9,5.3,8.7s-2.4,8.7-5.3,8.7s-5.3-3.9-5.3-8.7S-34.4,41.2-31.4,41.2z"/>
	</g>
	<g class="st2">
		<path d="M-55.2,58.5h-16.3c-2.7,0-4.8,2.2-4.8,4.8v13.4c0,2.7,2.2,4.8,4.8,4.8h16.3c2.7,0,4.8-2.2,4.8-4.8V63.4
			C-50.3,60.7-52.5,58.5-55.2,58.5z M-51.5,76.7c0,2-1.6,3.7-3.7,3.7h-16.3c-2,0-3.7-1.6-3.7-3.7V63.4c0-2,1.6-3.7,3.7-3.7h16.3
			c2,0,3.7,1.6,3.7,3.7V76.7z"/>
		<path d="M-10.5,58.5h-16.3c-2.7,0-4.8,2.2-4.8,4.8v13.4c0,2.7,2.2,4.8,4.8,4.8h16.3c2.7,0,4.8-2.2,4.8-4.8V63.4
			C-5.7,60.7-7.9,58.5-10.5,58.5z M-6.9,76.7c0,2-1.6,3.7-3.7,3.7h-16.2c-2,0-3.7-1.6-3.7-3.7V63.4c0-2,1.6-3.7,3.7-3.7h16.3
			c2,0,3.7,1.6,3.7,3.7L-6.9,76.7L-6.9,76.7z"/>
		<path d="M-3.5,55.7l-22-22c-1.3-1.3-3-2-4.9-2c-3.8,0-6.9,3.1-6.9,6.9v4.3c0,1.8,1.4,3.2,3.2,3.2s3.2-1.4,3.2-3.2v-3.2
			c0-0.2,0.2-0.4,0.4-0.4c0.1,0,0.2,0,0.3,0.1l14.3,14.3H-28c-3.4,0-6.4,1.8-8.1,4.8c-1.4-1-3.2-1.6-4.9-1.6s-3.5,0.6-4.9,1.6
			c-1.6-2.9-4.7-4.8-8.1-4.8h-12.1c3.4-3.4,14.3-14.3,14.3-14.3c0.1-0.1,0.2-0.1,0.3-0.1c0.2,0,0.4,0.2,0.4,0.4V43
			c0,1.8,1.4,3.2,3.2,3.2s3.2-1.4,3.2-3.2v-4.3c0-3.8-3.1-6.9-6.9-6.9c-1.8,0-3.6,0.7-4.9,2l-22,22c-2.1,1.8-3.4,4.4-3.4,7.1v14.4
			c0,5.1,4.1,9.2,9.2,9.2H-54c5.1,0,9.2-4.1,9.2-9.2V64.5c0.9-1.2,2.3-1.9,3.8-1.9s2.9,0.7,3.8,1.9v12.8c0,5.1,4.1,9.2,9.2,9.2h18.7
			c5.1,0,9.2-4.1,9.2-9.2V62.8C-0.1,60.1-1.4,57.5-3.5,55.7z M-1.3,77.3c0,4.4-3.6,8-8,8H-28c-4.4,0-8-3.6-8-8v-13
			c0-0.1,0-0.2-0.1-0.3c-1.1-1.6-2.9-2.5-4.8-2.5c-1.9,0-3.7,1-4.9,2.5c-0.1,0.1-0.1,0.2-0.1,0.3v13c0,4.4-3.6,8-8,8h-18.8
			c-4.4,0-8-3.6-8-8V62.8c0-2.4,1.1-4.7,3-6.2l22.1-22.1c1.1-1.1,2.5-1.7,4.1-1.7c3.2,0,5.7,2.6,5.7,5.7v4.3c0,1.1-0.9,2-2,2
			s-2-0.9-2-2v-3.1c0-0.9-0.7-1.6-1.6-1.6c-0.4,0-0.8,0.2-1.1,0.5l-13,12.8c-2.7,2.7-2.7,2.7-2.5,3c0.1,0.2,0.3,0.4,0.5,0.4H-54
			c3.1,0,6,1.8,7.3,4.7c0,0.1,0.1,0.2,0.2,0.3c0.2,0.1,0.5,0.1,0.7,0l0,0c1.3-1.1,3-1.7,4.7-1.7s3.4,0.6,4.8,1.7
			c0.1,0.1,0.3,0.2,0.5,0.1c0.2,0,0.3-0.2,0.4-0.3c1.3-2.9,4.2-4.7,7.3-4.7h13.5c0.2,0,0.5-0.1,0.5-0.4c0.1-0.2,0-0.5-0.1-0.6
			l-15.2-15.4c-0.3-0.3-0.7-0.5-1.1-0.5c-0.9,0-1.6,0.7-1.6,1.6v3.3c0,1.1-0.9,2-2,2s-2-0.9-2-2v-4.3c0-3.2,2.6-5.7,5.7-5.7
			c1.5,0,3,0.6,4.1,1.7l22.1,22.1c0,0,0,0,0.1,0.1c1.8,1.5,2.9,3.8,2.9,6.2v14.3H-1.3z"/>
	</g>
	<g class="st2">
		<path d="M-53,32.3c-7-0.3-10.7,2.1-14.1,4.2c-1.8,1.1-3.4,2.2-5.5,2.9c-0.7,0.2-1.4,0.4-2.1,0.6c-1.2,0.3-2,1.3-2,2.5v39.6
			c0,1.4,1.1,2.5,2.5,2.5h25.5c1.1,0,2.2-0.5,3.1-1.3l2.1-2.1c0.8-0.8,1.3-1.9,1.3-3l0.2-39.6v-0.1C-42.1,38.3-43.3,32.7-53,32.3z
			 M-43.3,78.1c0,0.8-0.3,1.6-0.9,2.2l-2.1,2.1c-0.6,0.6-1.4,0.9-2.2,0.9h-25.6c-0.7,0-1.3-0.6-1.3-1.3V42.4c0-0.7,0.5-1.2,1.1-1.4
			c0.7-0.2,1.5-0.4,2.2-0.6c2.2-0.7,3.9-1.8,5.7-3c3.1-2,6.3-4.1,12.2-4.1c0.4,0,0.8,0,1.2,0c8.3,0.4,9.7,4.7,9.8,5.3L-43.3,78.1z"
			/>
		<path d="M-0.9,34.7c-0.5-0.5-1.2-0.7-1.9-0.6c-1.7,0.1-4.3,0.1-7.6-1c-2-0.6-3.6-1.6-5.3-2.7c-3.2-2-6.8-4.2-13.6-4.2l0,0
			c-7.3,0-10.6,3.2-11.7,4.6c-1.1-1.5-4.4-4.6-11.7-4.6l0,0c-6.7,0-10.4,2.2-13.6,4.2c-1.7,1-3.3,2-5.3,2.7c-3.3,1.1-6,1.1-7.6,1
			c-0.7-0.1-1.4,0.2-1.9,0.6c-0.5,0.5-0.8,1.1-0.8,1.8v48.6c0,2.2,1.8,4.1,4.1,4.1h28c0.1,0,0.1,0.1,0.1,0.1c0,1.4,1.1,2.5,2.5,2.5
			h12.5c1.4,0,2.5-1.1,2.5-2.5c0-0.1,0.1-0.1,0.1-0.1h28c2.2,0,4.1-1.8,4.1-4.1V36.6C-0.1,35.9-0.4,35.2-0.9,34.7z M-1.3,85.2
			c0,1.6-1.3,2.9-2.9,2.9h-28c-0.7,0-1.3,0.6-1.3,1.3c0,0.7-0.6,1.3-1.3,1.3h-12.4c-0.7,0-1.3-0.6-1.3-1.3c0-0.7-0.6-1.3-1.3-1.3
			h-28c-1.6,0-2.9-1.3-2.9-2.9V36.6c0-0.4,0.2-0.7,0.4-1c0.2-0.2,0.6-0.3,0.9-0.3h0.1c1.8,0.1,4.6,0.1,8.1-1
			c2.1-0.7,3.8-1.7,5.6-2.8c3.2-2,6.6-4,13-4l0,0c7,0,9.9,3,10.8,4.3c0.4,0.6,1.3,0.6,1.7,0c0.9-1.3,3.8-4.3,10.8-4.3l0,0
			c6.4,0,9.7,2,13,4c1.8,1.1,3.5,2.1,5.6,2.8c3.5,1.1,6.3,1.2,8.1,1c0.4,0,0.7,0.1,1,0.3c0.3,0.3,0.4,0.6,0.4,1L-1.3,85.2L-1.3,85.2
			z"/>
		<path d="M-7.4,39.9c-0.7-0.2-1.4-0.3-2.1-0.6c-2-0.7-3.7-1.7-5.5-2.9c-3.3-2.1-7.1-4.5-14.1-4.2c-9.7,0.4-10.9,6-10.9,6.3v0.1
			l0.1,39.5c0,1.1,0.5,2.2,1.3,3l2.1,2.1c0.8,0.8,1.9,1.3,3.1,1.3h25.5c1.4,0,2.5-1.1,2.5-2.5V42.4C-5.4,41.2-6.3,40.2-7.4,39.9z
			 M-6.6,82c0,0.7-0.6,1.3-1.3,1.3h-25.5c-0.8,0-1.6-0.3-2.2-0.9l-2.1-2.1c-0.6-0.6-0.9-1.4-0.9-2.2l-0.2-39.4
			c0.1-0.5,1.5-4.9,9.8-5.3c6.6-0.3,10,1.9,13.4,4c1.8,1.2,3.6,2.3,5.7,3c0.7,0.2,1.5,0.4,2.2,0.6c0.6,0.1,1.1,0.7,1.1,1.4
			C-6.6,42.4-6.6,82-6.6,82z"/>
	</g>
	<g class="st2">
		<path d="M-42.6,20c-1.9,0-3.5,1.6-3.5,3.5v20.2c0,0.5-0.4,0.9-0.9,0.9s-0.9-0.4-0.9-0.9V23.4c0-1.9-1.6-3.5-3.5-3.5
			s-3.5,1.6-3.5,3.5v20.3c0,0.5-0.4,0.9-0.9,0.9s-0.9-0.4-0.9-0.9V23.4c0-1.9-1.6-3.5-3.5-3.5c-1.9,0-3.5,1.6-3.5,3.5v21.8
			c0,3.7,2.7,9.9,8.8,12.4v37.1c0,1.9,1.6,3.5,3.5,3.5s3.5-1.6,3.5-3.5V57.6c6.1-2.5,8.8-8.7,8.8-12.4V23.4
			C-39.1,21.5-40.7,20-42.6,20z M-40.3,45.2c0,3.4-2.6,9.2-8.5,11.4c-0.2,0.1-0.4,0.3-0.4,0.6v37.5c0,1.3-1,2.3-2.3,2.3
			s-2.3-1-2.3-2.3V57.2c0-0.2-0.2-0.5-0.4-0.6c-5.8-2.2-8.5-8-8.5-11.4V23.4c0-1.3,1-2.3,2.3-2.3s2.3,1,2.3,2.3v20.3
			c0,1.2,0.9,2.1,2.1,2.1s2.1-0.9,2.1-2.1V23.4c0-1.3,1-2.3,2.3-2.3s2.3,1,2.3,2.3v20.3c0,1.2,0.9,2.1,2.1,2.1s2.1-0.9,2.1-2.1V23.4
			c0-1.3,1-2.3,2.3-2.3s2.3,1,2.3,2.3v21.8H-40.3z"/>
		<path d="M-18.3,23c-0.1-1.1-0.8-2-1.9-2.4c-1.1-0.4-2.3-0.3-3.2,0.4c-6,4.8-9.5,12-9.5,19.7c0,6.9,2.7,13.3,7.7,18.1v35.9
			c0,1.9,1.6,3.5,3.5,3.5s3.5-1.6,3.5-3.5V23.4C-18.3,23.3-18.3,23.2-18.3,23z M-19.4,94.7c0,1.3-1,2.3-2.3,2.3s-2.3-1-2.3-2.3v-36
			c0-0.2-0.1-0.3-0.2-0.4c-4.8-4.6-7.5-10.8-7.5-17.5c0-7.4,3.3-14.2,9.1-18.8c0.4-0.3,0.8-0.4,1.3-0.4c0.3,0,0.5,0.1,0.8,0.2
			c0.7,0.3,1.1,0.8,1.1,1.5c0,0.1,0,0.2,0,0.3V94.7z"/>
	</g>
	<g class="st2">
		<path d="M-52.1,62.3c-0.2-2.7-2.6-4.8-5.4-4.6c-1.3,0.1-2.5,0.7-3.4,1.7c-0.9,1-1.3,2.3-1.2,3.6l1.9,24c0.2,2.6,2.4,4.6,5,4.6
			c0.1,0,0.3,0,0.4,0c2.7-0.2,4.8-2.6,4.6-5.4L-52.1,62.3z M-52.3,89.1c-0.7,0.8-1.6,1.2-2.6,1.3c-1,0.1-2-0.2-2.8-0.9
			c-0.8-0.7-1.2-1.6-1.3-2.6l-1.9-24c-0.2-2.1,1.4-3.9,3.5-4.1c0.1,0,0.2,0,0.3,0c2,0,3.6,1.5,3.8,3.5l1.9,24
			C-51.3,87.4-51.7,88.4-52.3,89.1z"/>
		<path d="M-47.7,60c-0.4-5.1-4.9-8.9-10-8.5h-0.6c-5.1,0.4-8.9,4.9-8.5,10l0.2,2.7l-5.6,3.1c-0.2,0.1-0.3,0.3-0.3,0.6l1.4,16.4
			c0,0.2,0.2,0.4,0.4,0.5l6,2.1l0.2,2.4c0.2,2.5,1.3,4.7,3.2,6.3c1.7,1.5,3.8,2.2,6,2.2c0.2,0,0.5,0,0.7,0h0.6
			c2.5-0.2,4.7-1.3,6.3-3.2c1.6-1.9,2.4-4.3,2.2-6.8L-47.7,60z M-48.6,93.8c-1.4,1.7-3.4,2.7-5.5,2.9h-0.6c-2.2,0.2-4.2-0.5-5.9-1.9
			c-1.7-1.4-2.7-3.4-2.8-5.5l-0.2-2.8c0-0.2-0.2-0.5-0.4-0.6l-6-2.1l-1.3-15.7l5.6-3.1c0.2-0.1,0.3-0.3,0.3-0.6l-0.2-3.1
			c-0.4-4.5,3-8.4,7.5-8.7h0.6c4.5-0.4,8.4,3,8.7,7.5l2.2,27.8C-46.5,90.1-47.2,92.2-48.6,93.8z"/>
		<path d="M-63.1,70.7c-0.2-0.1-0.4-0.1-0.6,0l-2.5,1.4c-0.2,0.1-0.3,0.3-0.3,0.6l0.6,6.9c0,0.2,0.2,0.4,0.4,0.5l2.7,0.9
			c0.1,0,0.1,0,0.2,0c0.1,0,0.3,0,0.4-0.1c0.2-0.1,0.2-0.3,0.2-0.5l-0.7-9.3C-62.8,70.9-62.9,70.8-63.1,70.7z M-64.7,79.1l-0.5-6.2
			l1.4-0.8l0.6,7.5L-64.7,79.1z"/>
		<path d="M-21.1,59.5c-0.9-1-2.1-1.6-3.4-1.7c-2.8-0.2-5.1,1.8-5.4,4.6l-1.9,24c-0.1,1.3,0.3,2.6,1.2,3.6s2.1,1.6,3.4,1.7
			c0.1,0,0.3,0,0.4,0c2.6,0,4.8-2,5-4.6l1.9-24C-19.8,61.8-20.2,60.5-21.1,59.5z M-21.1,63L-23,87c-0.2,2.1-2,3.7-4.1,3.5
			s-3.7-2-3.5-4.1l1.9-24c0.2-2,1.8-3.5,3.8-3.5c0.1,0,0.2,0,0.3,0c1,0.1,1.9,0.6,2.6,1.3C-21.3,61-21,62-21.1,63z"/>
		<path d="M-9.8,67.3l-5.6-3.1l0.2-2.7c0.4-5.1-3.4-9.6-8.5-10h-0.6c-5.1-0.4-9.6,3.4-10,8.5l-2.2,27.8c-0.2,2.5,0.6,4.9,2.2,6.8
			c1.6,1.9,3.9,3,6.3,3.2h0.6c0.2,0,0.5,0,0.7,0c2.2,0,4.3-0.8,6-2.2c1.9-1.6,3-3.9,3.2-6.3l0.2-2.4l6-2.1c0.2-0.1,0.4-0.3,0.4-0.5
			l1.4-16.4C-9.5,67.7-9.6,67.4-9.8,67.3z M-12,83.9l-6,2.1c-0.2,0.1-0.4,0.3-0.4,0.5l0,0l-0.2,2.8c-0.2,2.2-1.2,4.1-2.8,5.5
			c-1.7,1.4-3.7,2.1-5.9,1.9h-0.6c-2.2-0.2-4.1-1.2-5.5-2.8c-1.4-1.7-2.1-3.7-1.9-5.9l2.2-27.8c0.3-4.2,3.9-7.5,8.1-7.5
			c0.2,0,0.4,0,0.6,0h0.6c4.5,0.4,7.8,4.3,7.5,8.7l-0.2,3.1c0,0.2,0.1,0.4,0.3,0.6l5.6,3.1L-12,83.9z"/>
		<path d="M-18.9,70.7c-0.2,0.1-0.3,0.3-0.3,0.5l-0.8,9.2c0,0.2,0.1,0.4,0.2,0.5s0.2,0.1,0.4,0.1c0.1,0,0.1,0,0.2,0l2.7-0.9
			c0.2-0.1,0.4-0.3,0.4-0.5l0.6-6.9c0-0.2-0.1-0.5-0.3-0.6l-2.6-1.4C-18.5,70.6-18.8,70.6-18.9,70.7z M-16.7,72.9l-0.5,6.2l-1.5,0.5
			l0.6-7.5L-16.7,72.9z"/>
		<path d="M-41,20.2c-19.9,0-36.2,16.2-36.2,36.2c0,1.8,0.1,3.7,0.4,5.5c0.4,1.9,2.1,3.2,4,3.2c2.2,0,4.1-1.8,4.1-4.1v-0.1v-0.1
			c-0.2-1.5-0.4-3-0.4-4.5c0-15.5,12.6-28.1,28.1-28.1s28.1,12.6,28.1,28.1c0,1.5-0.1,3-0.4,4.5v0.1V61c0,2.2,1.8,4.1,4.1,4.1
			c1.9,0,3.6-1.4,4-3.3c0.3-1.8,0.4-3.7,0.4-5.5C-4.8,36.4-21.1,20.2-41,20.2z M-6.4,61.7C-6.7,63-7.9,64-9.2,64
			c-1.6,0-2.9-1.3-2.9-2.9V61c0.2-1.5,0.4-3.1,0.4-4.6c0-16.1-13.1-29.3-29.3-29.3s-29.3,13.1-29.3,29.3c0,1.5,0.1,3.1,0.4,4.6v0.1
			c0,1.6-1.3,2.9-2.9,2.9c-1.4,0-2.5-1-2.8-2.3c-0.3-1.8-0.4-3.5-0.4-5.3c0-19.3,15.7-35,35-35s35,15.7,35,35
			C-6,58.2-6.1,60-6.4,61.7z"/>
	</g>
	<path class="st2" d="M-0.9,34.7c-0.5-0.5-1.2-0.7-1.9-0.6c-1.7,0.1-4.3,0.1-7.6-1c-2-0.6-3.6-1.6-5.3-2.7c-3.2-2-6.8-4.2-13.6-4.2
		l0,0c-7.3,0-10.6,3.2-11.7,4.6c-1.1-1.5-4.4-4.6-11.7-4.6l0,0c-6.7,0-10.4,2.2-13.6,4.2c-1.7,1-3.3,2-5.3,2.7c-3.3,1.1-6,1.1-7.6,1
		c-0.7-0.1-1.4,0.2-1.9,0.6c-0.5,0.5-0.8,1.1-0.8,1.8v48.6c0,2.2,1.8,4.1,4.1,4.1h28c0.1,0,0.1,0.1,0.1,0.1c0,1.4,1.1,2.5,2.5,2.5
		h12.5c1.4,0,2.5-1.1,2.5-2.5c0-0.1,0.1-0.1,0.1-0.1h28c2.2,0,4.1-1.8,4.1-4.1V36.6C-0.1,35.9-0.4,35.2-0.9,34.7z M-42.1,78.1
		c0,1.1-0.5,2.2-1.3,3l-2.1,2.1c-0.8,0.8-1.9,1.3-3.1,1.3h-25.5c-1.4,0-2.5-1.1-2.5-2.5V42.4c0-1.2,0.8-2.3,2-2.5
		c0.7-0.2,1.4-0.3,2.1-0.6c2-0.7,3.7-1.7,5.5-2.9c3.3-2.1,7.1-4.5,14.1-4.2c9.7,0.4,10.9,6,10.9,6.3v0.1L-42.1,78.1z M-5.4,82
		c0,1.4-1.1,2.5-2.5,2.5h-25.5c-1.1,0-2.2-0.5-3.1-1.3l-2.1-2.1c-0.8-0.8-1.3-1.9-1.3-3L-40,38.6v-0.1c0-0.2,1.3-5.8,10.9-6.3
		c7-0.3,10.7,2.1,14.1,4.2c1.8,1.1,3.4,2.2,5.5,2.9c0.7,0.2,1.4,0.4,2.1,0.6c1.2,0.3,2,1.3,2,2.5V82z"/>
	<path class="st1" d="M3570.9-1181.8l-55.1-7c-2.2-0.3-4.1,1.4-4.1,3.6v73.9c0,2,1.6,3.6,3.6,3.6h55.1c2,0,3.6-1.6,3.6-3.6v-66.9
		C3574.1-1180,3572.7-1181.5,3570.9-1181.8z"/>
	<path class="st1" d="M3547-1195v-22.6c0-2.3-1.9-4.2-4.2-4.2l0,0c-2.3,0-4.2,1.9-4.2,4.2v21.6l-29.8-3.8c-3.1-0.4-5.9,2-5.9,5.2
		v93.1c0,2.9,2.3,5.2,5.2,5.2h69.2c2.9,0,5.2-2.3,5.2-5.2v-84.3c0-2.6-2-4.9-4.6-5.2L3547-1195L3547-1195z"/>
	<path class="st1" d="M3542.1-1240.9c0.4-0.5,1.2-0.5,1.6,0c1.1,1.3,3.1,2.7,5.6,4.1c3.6,2.1,6,6.1,6,10.6c0,3.1-1.1,5.9-3,8.1
		c-0.2,0.2-0.3,0.4-0.3,0.7c0,1.3,0,5.8,0,8.4c0,0.8,0.9,1.3,1.6,0.9c6.2-3.6,10.3-10.4,10.3-18.1c0-7.2-3.6-13.6-9.2-17.3l0,0
		c-3.4-2.2-6.1-5.3-7.7-9c-0.5-1.7-2.1-3-4-3s-3.5,1.3-4,3c-1.7,3.7-4.4,6.8-7.7,9l0,0c-5.6,3.8-9.2,10.1-9.2,17.3
		c0,7.7,4.2,14.4,10.3,18.1c0.7,0.4,1.6-0.1,1.6-0.9c0-2.5,0-7,0-8.4c0-0.3-0.1-0.5-0.3-0.7c-1.9-2.2-3-5-3-8.1
		c0-4.5,2.3-8.5,6-10.6C3539-1238.2,3541-1239.7,3542.1-1240.9z"/>
	<path class="st1" d="M3584.5-929.4h-83.3c-3.1,0-5.6-2.5-5.6-5.6v-64.5c0-1.9,1.5-3.4,3.4-3.4h87.7c1.9,0,3.4,1.5,3.4,3.4v64.5
		C3590.1-931.9,3587.6-929.4,3584.5-929.4z"/>
	<path class="st1" d="M3514.2-975.7h-8.5c-1.8,0-3.2-1.5-3.2-3.2l0,0c0-1.8,1.5-3.2,3.2-3.2h8.5v-11.2c0-1.8,1.5-3.2,3.2-3.2l0,0
		c1.8,0,3.2,1.5,3.2,3.2c0,0,0,11.3,0,11.2h18.9v-11.2c0-1.8,1.5-3.2,3.2-3.2l0,0c1.8,0,3.2,1.5,3.2,3.2v11.3h18.9v-11.2
		c0-1.8,1.5-3.2,3.2-3.2l0,0c1.8,0,3.2,1.5,3.2,3.2v11.3h8.5c1.8,0,3.2,1.5,3.2,3.2l0,0c0,1.8-1.5,3.2-3.2,3.2h-8.5v17.3h8.5
		c1.8,0,3.2,1.5,3.2,3.2l0,0c0,1.8-1.5,3.2-3.2,3.2h-8.5v12.4c0,1.8-1.5,3.2-3.2,3.2l0,0c-1.8,0-3.2-1.5-3.2-3.2v-12.4h-18.9v12.4
		c0,1.8-1.5,3.2-3.2,3.2l0,0c-1.8,0-3.2-1.5-3.2-3.2v-12.4h-18.9v12.4c0,1.8-1.5,3.2-3.2,3.2l0,0c-1.8,0-3.2-1.5-3.2-3.2v-12.4h-8.5
		c-1.8,0-3.2-1.5-3.2-3.2l0,0c0-1.8,1.5-3.2,3.2-3.2h8.5C3514.2-958.4,3514.2-975.7,3514.2-975.7z"/>
	<path class="st1" d="M3546.1-958.4h18.9v-17.3h-18.9C3546.1-975.7,3546.1-958.4,3546.1-958.4z"/>
	<rect x="3520.7" y="-975.7" class="st1" width="18.9" height="17.3"/>
	<path class="st1" d="M3514.3-1019.7L3514.3-1019.7c-2.9,0-5.2-2.4-5.2-5.2v-24.5c0-2.9,2.4-5.2,5.2-5.2l0,0c2.9,0,5.2,2.4,5.2,5.2
		v24.5C3519.6-1022.1,3517.2-1019.7,3514.3-1019.7z"/>
	<path class="st1" d="M3571.4-1019.7L3571.4-1019.7c-2.9,0-5.2-2.4-5.2-5.2v-24.5c0-2.9,2.4-5.2,5.2-5.2l0,0c2.9,0,5.2,2.4,5.2,5.2
		v24.5C3576.7-1022.1,3574.3-1019.7,3571.4-1019.7z"/>
	<path class="st1" d="M3582.2-1035v11.3c0,5.9-4.8,10.8-10.8,10.8l0,0c-5.9,0-10.8-4.8-10.8-10.8v-11.3h-35.5v11.3
		c0,5.9-4.8,10.8-10.8,10.8l0,0c-5.9,0-10.8-4.8-10.8-10.8v-11.3h-5.3c-8,0-14.5,6.5-14.5,14.5v88.1c0,8,6.5,14.5,14.5,14.5h89.2
		c8,0,14.5-6.5,14.5-14.5v-88.1c0-8-6.5-14.5-14.5-14.5C3587.5-1035,3582.2-1035,3582.2-1035z"/>
	<circle class="st1" cx="3509.4" cy="-858.1" r="18"/>
	<circle class="st1" cx="3576.4" cy="-858.1" r="18"/>
	<path class="st1" d="M3542.9-818.7L3542.9-818.7c6.3,0,11.4,5.2,11.4,11.4v85.4c0,5.3,4.3,9.6,9.6,9.6l0,0c5.3,0,9.6-4.3,9.6-9.6
		v-31.9c0-1.8,1.5-3.3,3.3-3.3s3.3,1.5,3.3,3.3v31.9c0,5.3,4.3,9.6,9.6,9.6l0,0c5.3,0,9.6-4.3,9.6-9.6V-801c0-1.7,1.3-3,3-3
		s3,1.3,3,3v32.5c0,3.6,2.9,6.5,6.5,6.5l0,0c3.6,0,6.5-2.9,6.5-6.5V-799c0-19.3-15.6-34.9-34.9-34.9H3543h-40.4
		c-19.3,0-34.9,15.6-34.9,34.9v30.5c0,3.6,2.9,6.5,6.5,6.5l0,0c3.6,0,6.5-2.9,6.5-6.5V-801c0-1.7,1.3-3,3-3s3,1.3,3,3v79.1
		c0,5.3,4.3,9.6,9.6,9.6l0,0c5.3,0,9.6-4.3,9.6-9.6v-31.9c0-1.8,1.5-3.3,3.3-3.3s3.3,1.5,3.3,3.3v31.9c0,5.3,4.3,9.6,9.6,9.6l0,0
		c5.3,0,9.6-4.3,9.6-9.6v-85.4C3531.4-813.6,3536.6-818.7,3542.9-818.7L3542.9-818.7z"/>
	<path class="st1" d="M3497.4-544.7c1,2,1.5,4.3,1.5,6.7c0,8.4-6.8,15.2-15.2,15.2s-15.2-6.8-15.2-15.2c0-7.3,5.2-13.4,12.1-14.9
		h0.1c-1-2-1.6-4.3-1.6-6.7c0-8.4,6.8-15.2,15.2-15.2s15.2,6.8,15.2,15.2C3509.6-552.3,3504.4-546.2,3497.4-544.7L3497.4-544.7z"/>
	<circle class="st1" cx="3483.8" cy="-538.1" r="6.5"/>
	<circle class="st1" cx="3494.4" cy="-559.6" r="6.5"/>
	<path class="st1" d="M3503.7-586.1c-2.6,0.7-5.3,1-8,1c-17.9,0-32.4-14.5-32.4-32.4c0-12,6.6-22.6,16.3-28.1
		c-0.3-1.7-0.4-3.4-0.4-5.1c0-17.3,14-31.3,31.3-31.3c7.6,0,14.6,2.7,20.1,7.3l0,0c5.6-8.3,15.2-13.8,26-13.8
		c15.1,0,27.8,10.7,30.7,25v0.1c3.2-1.1,6.7-1.8,10.4-1.8c17.3,0,31.3,14,31.3,31.3c0,12.3-7.1,22.9-17.3,28l0,0
		c0.3,1.7,0.4,3.5,0.4,5.3c0,17.3-14,31.3-31.3,31.3c-7.7,0-14.8-2.8-20.3-7.5l0,0c-5.6,8.7-15.3,14.4-26.4,14.4
		C3519.4-562.4,3507.1-572.5,3503.7-586.1L3503.7-586.1z"/>
	<path class="st1" d="M3555.9-586.5c-3.9,9.2-13.6,15.5-24.5,14.3c-11.3-1.2-20.2-10.6-20.9-21.9c0-0.2,0-0.4,0-0.6
		c-0.1-1.8-1.9-2.9-3.5-2.1c-3.7,1.8-8,2.6-12.6,2.1c-10.4-1.2-18.8-9.4-20.1-19.8c-1.5-11.9,6.1-22.3,16.8-25.1l0,0
		c-1.6-3.5-2.4-7.4-2-11.5c0.9-11.4,10.2-20.5,21.6-21.2c8-0.5,15.2,3.1,19.7,9c1.2,1.5,3.6,1.2,4.3-0.6
		c3.7-9.4,13.3-15.9,24.3-14.9c11.4,1,20.6,10.4,21.4,21.9c0,0.1,0,0.1,0,0.2c0.1,1.8,2,3,3.6,2.1c4-2.2,8.7-3.4,13.6-3
		c11.6,0.9,21,10.4,21.8,22c0.8,11.9-7.2,22.1-18.1,24.8l0,0c1,3,1.4,6.3,1.2,9.7c-1,12-10.9,21.6-22.9,22.2
		c-7.7,0.4-14.7-2.9-19.4-8.2C3558.8-588.6,3556.6-588.2,3555.9-586.5z"/>
	<path class="st1" d="M3564.1-450.4c0-11.1-8.3-20.7-19.3-21.7c-12.6-1.1-23.2,8.8-23.2,21.2c0,0,28.5,0,35.6,0
		c0.9,0,1.6,0.7,1.6,1.6c0,2.1,0,5.7,0,7.7c0,0.9-0.7,1.6-1.6,1.6c-7.1,0-35.6,0-35.6,0v15.6c0,2.6-2.1,4.7-4.7,4.7l0,0
		c-2.6,0-4.7-2.1-4.7-4.7v-26c0-16.2,12.3-30,28.4-31.2c18-1.3,33,12.9,33,30.6h23c4.7,0,8.7,3.2,9.1,7.2l10,116.8
		c0.5,5.4-3.7,9.9-9.2,9.9h-127.2c-5.5,0-9.6-4.5-9.2-9.9l10-116.8c0.3-4,4.4-7.2,9.1-7.2c0,0,11.8,0,16.1,0c0.9,0,1.6,0.7,1.6,1.6
		v7.7c0,0.9-0.7,1.6-1.6,1.6c-2.6,0-7.3,0-7.3,0c-3.9,0-7.3,2.7-7.6,6l-8.3,97.7c-0.4,4.5,3.1,8.3,7.7,8.3h106.4
		c4.6,0,8.1-3.7,7.7-8.3l-8.3-97.7c-0.3-3.3-3.7-6-7.6-6h-14.3v15.6c0,2.6-2.1,4.7-4.7,4.7l0,0c-2.6,0-4.7-2.1-4.7-4.7v-25.9H3564.1
		z"/>
	<path class="st1" d="M3485.8-197.5L3485.8-197.5"/>
	<path class="st1" d="M3545-147.9l21.4-14.9c1-0.7,1.6-1.9,1.6-3.1v-30.2c0-2.1-1.7-3.8-3.8-3.8h-21.4h-21.4c-2.1,0-3.8,1.7-3.8,3.8
		v30.2c0,1.3,0.6,2.4,1.6,3.1l21.4,14.9C3542-147,3543.7-147,3545-147.9z"/>
	<path class="st1" d="M3544.2-158.4l12.6-8.7c0.6-0.4,1-1.1,1-1.8v-17.8c0-1.2-1-2.2-2.2-2.2H3543h-12.6c-1.2,0-2.2,1-2.2,2.2v17.8
		c0,0.7,0.4,1.4,1,1.8l12.6,8.7C3542.4-157.9,3543.4-157.9,3544.2-158.4z"/>
	<path class="st1" d="M3542.9-131.5h42.2c2.2,0,4-1.8,4-4v-75.2c-16.3-4.9-28.4-19.9-28.4-37.7v-2.9l0,0
		c-2.7,7.2-9.7,12.3-17.8,12.3l0,0l0,0c-8.1,0-15.1-5.1-17.8-12.3l0,0v2.9c0,17.8-12,32.8-28.4,37.7v75.2c0,2.2,1.8,4,4,4
		C3500.7-131.5,3542.9-131.5,3542.9-131.5z"/>
	<path class="st1" d="M3542.9-121.5h49c4.6,0,8.3-3.7,8.3-8.3v-56c3.4,0.1,6.1,2.9,6.1,6.3v15.4c0,8.2,6.7,14.9,14.9,14.9l0,0v-8.9
		l0,0c-3.5,0-6.3-2.8-6.3-6.3v-18.1c0-8.1-6.6-14.8-14.7-14.9v-22.3c-17.2,0-31.2-14.1-31.2-31.2v-34.9h-15.7v26.2
		c0,5.4-4.4,9.8-9.8,9.8h-0.5h-0.5c-5.4,0-9.8-4.4-9.8-9.8v-26.2H3517v34.9c0,17.2-14.1,31.2-31.2,31.2v22.3
		c-8.1,0.1-14.7,6.8-14.7,14.9v18.1c0,3.5-2.8,6.3-6.3,6.3l0,0v8.9l0,0c8.2,0,14.9-6.7,14.9-14.9v-15.4c0-3.4,2.7-6.2,6.1-6.3v56
		c0,4.6,3.7,8.3,8.3,8.3C3493.9-121.5,3542.9-121.5,3542.9-121.5z"/>
	<path class="st2" d="M1.5,101l-5.7-67.2c-0.2-2.6-2.8-4.7-5.8-4.7h-12.8c-0.2-4.8-2.3-9.5-5.8-12.8c-3.7-3.5-8.6-5.2-13.8-4.8
		c-9.5,0.7-16.9,8.8-16.9,18.5v14.9c0,1.8,1.5,3.3,3.3,3.3c1.8,0,3.3-1.5,3.3-3.3v-8.4h19.9c0.8,0,1.5-0.7,1.5-1.5v-4.5
		c0-0.8-0.7-1.5-1.5-1.5c-3.6,0-16.9,0-19.9,0c0.2-3.1,1.5-6,3.8-8c2.4-2.2,5.6-3.3,8.9-3c5.9,0.5,10.6,5.8,10.6,11.9v15
		c0,1.8,1.5,3.3,3.3,3.3s3.3-1.5,3.3-3.3c0-2.5,0-6.9,0-8.4h7.6c2,0,3.7,1.3,3.8,2.9l4.8,56.3c0.1,1.1-0.3,2.1-1,2.9
		s-1.7,1.2-2.9,1.2h-61.1c-1.1,0-2.1-0.4-2.9-1.2c-0.7-0.8-1.1-1.8-1-2.9l4.8-56.3c0.1-1.6,1.8-2.9,3.8-2.9h4.2
		c0.8,0,1.5-0.7,1.5-1.5v-4.5c0-0.8-0.7-1.5-1.5-1.5H-72c-3,0-5.6,2.1-5.8,4.7l-5.7,67.3c-0.1,1.7,0.4,3.3,1.5,4.5
		c1.1,1.2,2.7,1.9,4.4,1.9h73.2c1.7,0,3.3-0.7,4.4-1.9S1.6,102.7,1.5,101z M-0.9,104.7c-0.9,1-2.1,1.5-3.5,1.5h-73.2
		c-1.4,0-2.6-0.5-3.5-1.5s-1.3-2.2-1.2-3.6l5.7-67.2c0.2-2,2.3-3.6,4.7-3.6h9.3c0.2,0,0.3,0.2,0.3,0.3v4.5c0,0.2-0.2,0.3-0.3,0.3
		h-4.2c-2.5,0-4.8,1.8-4.9,4l-4.9,56.3c-0.1,1.4,0.3,2.8,1.3,3.8c0.9,1,2.3,1.6,3.7,1.6h61.2c1.4,0,2.8-0.6,3.7-1.6
		c0.9-1,1.4-2.4,1.3-3.8l-4.8-56.3c-0.2-2.2-2.4-4-4.9-4h-8.2c-0.6,0-0.6,0.5-0.6,1V45c0,1.2-1,2.1-2.1,2.1c-1.2,0-2.1-1-2.1-2.1V30
		c0-6.7-5.1-12.5-11.7-13c-3.6-0.3-7.1,0.9-9.8,3.3c-2.6,2.4-4.2,5.9-4.2,9.5v0.1c0.1,0.5,0.1,0.5,3.2,0.5h17.9
		c0.2,0,0.3,0.2,0.3,0.3v4.5c0,0.2-0.2,0.3-0.3,0.3h-20.5c-0.3,0-0.6,0.3-0.6,0.6v9c0,1.2-1,2.1-2.1,2.1c-1.2,0-2.1-1-2.1-2.1V30
		c0-9.1,6.9-16.7,15.8-17.4c4.8-0.4,9.4,1.3,12.9,4.5s5.5,7.8,5.5,12.5c0,0.3,0.3,0.6,0.6,0.6h13.3c2.4,0,4.5,1.6,4.6,3.6L0.4,101
		C0.4,102.5,0,103.7-0.9,104.7z"/>
</g>
<g>
	<g>
		<path d="M-59.4,71.9c-1.8-1.8-4.7-1.8-6.4,0l-20.7,20.7c-1.8,1.8-1.8,4.7,0,6.4l5.5,5.5c0.9,0.9,2,1.3,3.2,1.3
			c1.2,0,2.4-0.5,3.2-1.3l20.7-20.7c1.8-1.8,1.8-4.7,0-6.4L-59.4,71.9z"/>
		<path d="M-4.1,22.2C-17.3,8.9-38.8,8.9-52,22.2c-11.8,11.8-13.2,30.6-3.4,44l-1.1,1.1c-1,1-1,2.7,0,3.7l3.6,3.6c1,1,2.7,1,3.7,0
			l1.1-1.1c5.9,4.4,13,6.5,20,6.5c8.7,0,17.5-3.3,24-9.9C9.1,56.8,9.1,35.4-4.1,22.2z M-9.1,65.1c-5.1,5.1-11.8,7.9-19,7.9
			s-13.9-2.8-19-7.9c-10.5-10.5-10.5-27.5,0-37.9c10.5-10.5,27.6-10.5,38-0.1C1.4,37.6,1.4,54.6-9.1,65.1z"/>
	</g>
</g>
</svg>
