<?xml version="1.0" encoding="utf-8"?>
<!-- Generator: Adobe Illustrator 19.0.0, SVG Export Plug-In . SVG Version: 6.00 Build 0)  -->
<svg version="1.1" id="Слой_1" xmlns="http://www.w3.org/2000/svg" xmlns:xlink="http://www.w3.org/1999/xlink" x="0px" y="0px"
	 viewBox="-74.6 25.2 67.1 67.1" style="enable-background:new -74.6 25.2 67.1 67.1;" xml:space="preserve">
<path d="M-41,25.2c-18.5,0-33.6,15.1-33.6,33.6S-59.5,92.3-41,92.3S-7.4,77.2-7.4,58.7C-7.4,40.2-22.5,25.2-41,25.2z M-55.7,85.5
	l0.9-14.7c0-1.2,1-2.2,2.2-2.2h23.1c1.2,0,2.2,1,2.2,2.3l0.9,14.6c-4.4,2.4-9.4,3.8-14.7,3.8S-51.3,87.9-55.7,85.5z M-23.4,83.7
	l-0.8-12.9c0-2.9-2.3-5.2-5.2-5.2h-7.4c5.4-1.8,9.3-6.8,9.3-12.8c0-7.4-6.1-13.5-13.5-13.5s-13.5,6.1-13.5,13.5
	c0,6,3.9,11.1,9.3,12.8h-7.4c-2.9,0-5.2,2.3-5.2,5.1l-0.8,13c-7.9-5.5-13-14.7-13-25c0-16.9,13.7-30.6,30.6-30.6
	c16.9,0,30.6,13.7,30.6,30.6C-10.4,69.1-15.6,78.2-23.4,83.7z M-41,63.3c-5.8,0-10.5-4.7-10.5-10.5s4.7-10.5,10.5-10.5
	c5.8,0,10.5,4.7,10.5,10.5S-35.2,63.3-41,63.3z"/>
</svg>
