<?xml version="1.0" encoding="utf-8"?>
<!-- Generator: Adobe Illustrator 19.0.0, SVG Export Plug-In . SVG Version: 6.00 Build 0)  -->
<svg version="1.1" id="Слой_1" xmlns="http://www.w3.org/2000/svg" xmlns:xlink="http://www.w3.org/1999/xlink" x="0px" y="0px"
	 viewBox="0 0 260.2 42.7" style="enable-background:new 0 0 260.2 42.7;" xml:space="preserve">
<g id="XMLID_158_">
	<path id="XMLID_159_" d="M44.2,16.4c1.6,1.7,2.3,4.6,2.3,8.7v8c0,1.7-0.1,3.3-0.2,4.8c1.2-0.1,2.5-0.2,3.8-0.2v4.1H35.5v-3.5
		c1.2,0,2-0.4,2.3-1.2c0.4-0.8,0.5-2,0.5-3.7v-8.3c0-2.2-0.4-3.8-1.2-4.8c-0.7-1-1.8-1.5-3.2-1.6c-1.8,0-3.5,0.6-5.2,1.8
		c0.4,1.5,0.5,3.2,0.5,5.2v7.3c0,1.7-0.1,3.3-0.2,4.8c1.2-0.1,2.5-0.2,3.8-0.2v4.1H18v-3.5c1.4,0,2.2-0.4,2.6-1.2
		c0.4-0.8,0.6-2,0.6-3.7L21.1,25c0-2.3-0.4-3.9-1.1-4.8c-0.7-0.9-1.7-1.4-3.1-1.4c-1.7,0-3.4,0.7-4.9,2v12.4c0,1.7-0.1,3.3-0.2,4.8
		c1.2-0.1,2.4-0.2,3.5-0.2v4.1H0.4v-3.5c1.4,0,2.4-0.4,2.8-1.1c0.4-0.8,0.6-2,0.6-3.7v-9.2c0-1.6,0.1-3.2,0.2-4.6l-4,0.2v-4.1
		c2.4,0,4.4-0.2,5.9-0.5c1.5-0.3,2.5-0.7,3-1.2h2.8c0,0.1,0.1,1,0.2,2.8h0.1c1.2-0.9,2.5-1.6,4-2.2c1.5-0.6,3-0.9,4.4-0.9
		c3.4,0,5.8,1.2,7.1,3.6c1.4-1.1,2.9-2,4.6-2.6c1.7-0.7,3.3-1,4.8-1C40.3,13.8,42.7,14.6,44.2,16.4z"/>
	<path id="XMLID_161_" d="M82.5,37.9c1.2-0.1,2.4-0.2,3.7-0.2v4.1h-11l-0.3-2.8h-0.1c-1.4,1.2-2.8,2.1-4.1,2.8c-1.3,0.6-2.8,1-4.5,1
		c-3.4,0-5.9-0.9-7.4-2.8c-1.5-1.9-2.2-5-2.2-9.2v-6.3c0-1.6,0.1-3.1,0.2-4.7l-4,0.2v-4.1c2.4,0,4.4-0.2,5.9-0.5
		c1.5-0.3,2.5-0.7,3-1.2h3.2v16.7c0,2.4,0.3,4.2,1,5.3c0.7,1.1,1.7,1.7,3.1,1.7c0.9,0,1.9-0.2,2.9-0.8c1-0.5,1.9-1.1,2.6-1.9V24.4
		c0-1.7,0.1-3.3,0.2-4.7l-4.1,0.2v-4.1c2.4,0,4.4-0.2,5.9-0.5c1.5-0.3,2.5-0.7,3-1.2h3.2v19.1C82.7,34.9,82.6,36.5,82.5,37.9z"/>
	<path id="XMLID_163_" d="M105,14.2c1.3,0.3,2.4,0.8,3.3,1.4h0.1l-0.1-1.6h4.4v9.7H109c-0.4-1.8-1.2-3.3-2.7-4.4
		c-1.4-1.1-3.2-1.6-5.2-1.6c-1.1,0-2,0.2-2.7,0.7c-0.7,0.5-1.1,1.2-1.1,2.2c0,1,0.5,1.8,1.3,2.3c0.9,0.5,2.4,1,4.5,1.6l1.2,0.4
		c3.3,1.1,5.8,2.4,7.5,3.8c1.7,1.5,2.6,3.4,2.6,5.8c0,2.7-1,4.8-3.1,6.2c-2.1,1.5-4.5,2.2-7.4,2.2c-1.7,0-3.3-0.2-4.9-0.6
		c-1.6-0.4-2.8-0.9-3.7-1.6h-0.1l0.2,1.6h-4.4l-0.2-9.4h3.8c0.2,1.7,1.1,3.1,2.8,4.2c1.7,1.1,3.7,1.7,6.2,1.7c1.1,0,2-0.2,2.8-0.7
		c0.8-0.5,1.2-1.1,1.2-2c0-0.7-0.2-1.2-0.8-1.7c-0.5-0.4-1.1-0.8-1.8-1.1c-0.7-0.3-2.1-0.8-4.1-1.5c-2.4-0.9-4.2-1.6-5.5-2.2
		C94.1,29,93,28.1,92,27c-1-1.2-1.5-2.6-1.5-4.4c0-1.5,0.4-2.9,1.2-4.2c0.8-1.3,2-2.4,3.6-3.3c1.6-0.8,3.7-1.3,6.1-1.3
		C102.5,13.8,103.7,13.9,105,14.2z"/>
	<path id="XMLID_165_" d="M130.7,37.9c1.2-0.1,2.5-0.2,3.8-0.2v4.1h-15.1v-3.5c1.4,0,2.4-0.4,2.8-1.1c0.4-0.8,0.6-2,0.6-3.7v-9.1
		c0-1.7,0.1-3.3,0.2-4.7l-4,0.2v-4.1c2.4,0,4.4-0.2,5.9-0.5c1.5-0.3,2.5-0.7,3-1.2h3.1v19.1C131,34.9,130.9,36.5,130.7,37.9z
		 M130.6,1.6c0.8,0.9,1.3,2,1.3,3.2c0,1.2-0.4,2.3-1.2,3.1c-0.8,0.8-1.8,1.3-3.1,1.3c-1.3,0-2.4-0.4-3.2-1.3S123,6.1,123,4.8
		c0-1.2,0.4-2.3,1.3-3.2s1.9-1.4,3.1-1.4C128.7,0.3,129.7,0.7,130.6,1.6z"/>
	<path id="XMLID_168_" d="M166.5,16.6c1.5,1.9,2.2,5,2.2,9.2v7.3c0,1.7-0.1,3.3-0.2,4.8c1.3-0.1,2.5-0.2,3.8-0.2v4.1h-15.1v-3.5
		c1.5,0,2.4-0.4,2.8-1.1c0.4-0.8,0.6-2,0.6-3.7l-0.1-7.7c0-2.4-0.4-4.2-1.1-5.3c-0.7-1.1-1.9-1.7-3.6-1.7c-0.9,0-1.8,0.2-2.8,0.6
		c-1,0.4-1.8,0.9-2.4,1.4v12.4c0,1.7-0.1,3.3-0.2,4.8c1.2-0.1,2.5-0.2,3.8-0.2v4.1H139v-3.5c1.4,0,2.4-0.4,2.8-1.2
		c0.4-0.8,0.6-2,0.6-3.7v-9.2c0-1.6,0.1-3.2,0.2-4.6l-4,0.2v-4.1c2.4,0,4.3-0.2,5.8-0.5c1.5-0.3,2.5-0.7,3-1.2h2.8
		c0,0.1,0.1,1,0.2,2.8h0.1c1.1-0.8,2.5-1.6,4.1-2.2c1.6-0.6,3-0.9,4.2-0.9C162.5,13.8,165,14.7,166.5,16.6z"/>
	<path id="XMLID_170_" d="M196.1,15.5c2.2,1.1,4,2.8,5.2,4.9c1.3,2.1,1.9,4.6,1.9,7.4c0,3-0.6,5.6-1.8,7.9c-1.2,2.3-2.9,4-5.1,5.2
		c-2.2,1.2-4.7,1.9-7.5,1.9c-2.8,0-5.3-0.6-7.6-1.7c-2.2-1.1-4-2.8-5.3-4.9c-1.3-2.1-1.9-4.5-1.9-7.4c0-3,0.7-5.6,2-7.9
		c1.3-2.3,3.1-4.1,5.3-5.3c2.2-1.3,4.6-1.9,7.3-1.9C191.3,13.8,193.8,14.3,196.1,15.5z M184,20.4c-1,1.9-1.4,4.2-1.4,7
		c0,3.2,0.5,5.9,1.6,8.1c1,2.3,2.6,3.4,4.8,3.4c3.8,0,5.7-3.3,5.7-9.8c0-3.1-0.5-5.8-1.4-8.1c-1-2.3-2.5-3.4-4.6-3.4
		C186.5,17.6,184.9,18.5,184,20.4z"/>
	<path id="XMLID_173_" d="M226.1,14.6v4.2l-7.3,0.2l-0.1,13.4c0,3.5,1.2,5.3,3.5,5.3c1.8,0,3.6-1.1,5.3-3.3l2.8,2.5
		c-1.8,2.5-3.6,4.1-5.4,4.9c-1.8,0.7-3.6,1.1-5.3,1.1c-6,0-9-3.5-9-10.5l0.1-13.1h-4v-4.6c1.8,0,3.4-0.7,4.9-2.2
		c1.5-1.4,2.5-3,3-4.6h4.3l-0.1,6.8H226.1z"/>
	<path id="XMLID_175_" d="M255.7,16.9c2.5,2.1,3.7,5.5,3.7,10.3l-19,0.4c0,3.2,0.6,5.7,1.9,7.6c1.3,1.9,3.4,2.8,6.2,2.8
		c1.3,0,2.8-0.3,4.3-1c1.6-0.7,3-1.7,4.2-3.1l2.6,2.3c-3.3,4.4-7.8,6.7-13.4,6.7c-2.8,0-5.3-0.6-7.5-1.8c-2.1-1.2-3.8-2.9-5-5
		c-1.2-2.2-1.8-4.7-1.8-7.6c0-2.6,0.6-5,1.8-7.2c1.2-2.2,2.9-4,5.1-5.4c2.2-1.3,4.7-2,7.6-2C250.1,13.8,253.2,14.8,255.7,16.9z
		 M242.7,19.2c-1,1.1-1.6,2.6-2,4.5h10.6c-0.1-4.1-1.7-6.1-4.7-6.1C245,17.6,243.7,18.1,242.7,19.2z"/>
</g>
</svg>
