<?xml version="1.0" encoding="utf-8"?>
<!-- Generator: Adobe Illustrator 23.0.0, SVG Export Plug-In . SVG Version: 6.00 Build 0)  -->
<svg version="1.1" id="Layer_1" xmlns="http://www.w3.org/2000/svg" xmlns:xlink="http://www.w3.org/1999/xlink" x="0px" y="0px"
	 viewBox="0 0 158 158" style="enable-background:new 0 0 158 158;" xml:space="preserve">
<style type="text/css">
	.st0{fill:#FFFFFF;}
</style>
<g>
	<path class="st0" d="M85.196,61.692c-17.116-5.079-34.275-0.556-43.014,11.057c-5.539,7.361-6.234,15.627-6.233,19.951
		c0.003,12.718,9.022,25.832,22.344,29.754c10.576,3.114,19.771-0.866,22.686-2.28c-1.298-0.92-14.748-10.798-14.706-28.044
		C66.303,79.433,73.633,67.674,85.196,61.692z"/>
	<path class="st0" d="M95.228,28.556v76.304c-0.179,2.839-0.889,7.838-3.952,13.072c-4.922,8.409-12.606,11.766-15.2,12.768
		c1.501,0.165,33.205,3.184,46.871-17.786c2.041-3.132,4.494-8.049,5.417-15.046c0-32.021,0-64.042,0-96.064
		c-2.985,0.105-12.943,0.827-21.888,8.512C98.531,17.142,95.998,25.498,95.228,28.556z"/>
</g>
<path class="st0" d="M137.322,32.137C148.748,44.475,155.712,61,156.509,78.046c0.231,8.502-0.628,17.113-3.146,25.346
	c-2.566,8.198-6.558,15.968-11.764,22.86c-10.452,13.707-25.779,23.98-42.904,27.698c-17.001,3.829-35.511,1.905-51.226-6.274
	c-15.733-7.965-28.771-21.465-35.948-37.889C4.535,93.338,3.309,74.286,9.07,57.254c5.665-17.003,17.462-31.695,32.591-40.649
	c7.56-4.471,15.905-7.452,24.405-8.9c8.521-1.313,17.178-1.326,25.45,0.384c0.285,0.059,0.469,0.338,0.41,0.623
	c-0.052,0.254-0.283,0.426-0.533,0.42c-16.642-0.397-32.782,4.48-45.706,13.67c-12.828,9.311-22.321,22.702-26.582,37.565
	c-2.265,7.393-3.015,15.195-2.668,22.882c0.311,7.695,1.834,15.354,4.69,22.549c5.525,14.487,16.51,26.87,30.254,34.439
	c13.716,7.724,30.317,10.017,45.89,7.035c15.664-2.869,30.073-11.831,40.199-24.265c5.106-6.2,9.156-13.305,11.902-20.928
	c2.697-7.655,3.858-15.788,3.988-23.943c-0.076-16.33-6.08-32.67-16.825-45.303c-0.188-0.221-0.161-0.553,0.06-0.741
	C136.809,31.908,137.131,31.932,137.322,32.137z"/>
</svg>
