<?xml version="1.0" encoding="utf-8"?>
<!-- Generator: Adobe Illustrator 23.0.0, SVG Export Plug-In . SVG Version: 6.00 Build 0)  -->
<svg version="1.1" id="Layer_1" xmlns="http://www.w3.org/2000/svg" xmlns:xlink="http://www.w3.org/1999/xlink" x="0px" y="0px"
	 viewBox="0 0 158 158" style="enable-background:new 0 0 158 158;" xml:space="preserve">
<path d="M83.307,61.464c-17.505-5.194-35.053-0.569-43.991,11.308c-5.665,7.528-6.376,15.981-6.375,20.404
	c0.003,13.007,9.227,26.418,22.851,30.429c10.816,3.184,20.219-0.886,23.201-2.332c-1.328-0.94-15.082-11.043-15.04-28.68
	C63.985,79.608,71.482,67.582,83.307,61.464z"/>
<path d="M93.567,27.576v78.035c-0.183,2.904-0.909,8.016-4.042,13.369c-5.033,8.6-12.892,12.033-15.545,13.058
	c1.536,0.168,33.958,3.256,47.934-18.19c2.088-3.204,4.596-8.232,5.54-15.387c0-32.748,0-65.496,0-98.243
	c-3.052,0.107-13.237,0.846-22.385,8.705C96.945,15.903,94.354,24.448,93.567,27.576z"/>
<path d="M136.616,31.237c11.686,12.619,18.808,29.519,19.623,46.951c0.237,8.695-0.642,17.501-3.217,25.921
	c-2.625,8.384-6.707,16.33-12.031,23.379c-10.69,14.018-26.364,24.524-43.878,28.326c-17.387,3.916-36.317,1.948-52.389-6.416
	C28.634,141.254,15.3,127.447,7.96,110.65C0.816,93.828-0.438,74.344,5.454,56.925c5.793-17.389,17.858-32.414,33.331-41.571
	c7.732-4.573,16.266-7.621,24.959-9.102c8.715-1.342,17.568-1.356,26.028,0.393c0.292,0.06,0.479,0.346,0.419,0.637
	c-0.054,0.259-0.29,0.436-0.545,0.43c-17.02-0.406-33.526,4.581-46.743,13.98c-13.119,9.522-22.828,23.218-27.186,38.417
	c-2.317,7.56-3.083,15.54-2.729,23.401c0.318,7.869,1.875,15.703,4.796,23.061c5.65,14.816,16.885,27.479,30.94,35.221
	c14.028,7.9,31.005,10.244,46.931,7.194c16.019-2.934,30.755-12.099,41.111-24.816c5.222-6.341,9.364-13.607,12.172-21.403
	c2.758-7.829,3.946-16.146,4.078-24.487c-0.078-16.701-6.218-33.411-17.206-46.331c-0.192-0.226-0.165-0.565,0.061-0.757
	C136.091,31.004,136.421,31.028,136.616,31.237z"/>
</svg>
